<?xml version="1.0" encoding="UTF-8"?><svg id="Layer_1" xmlns="http://www.w3.org/2000/svg" viewBox="0 0 1024 1024"><defs><style>.cls-1{fill:#f1b7b7;}.cls-2{fill:#e087b9;}.cls-3{font-family:FenwickOutline-Regular, Fenwick;font-size:470.72px;stroke:#000;stroke-miterlimit:10;}</style></defs><g><polygon class="cls-2" points="947.43 773.11 947.43 290.42 529.4 49.07 111.38 290.42 111.38 773.11 529.4 1014.46 947.43 773.11"/><polygon class="cls-1" points="912.62 733.58 912.62 250.89 494.6 9.54 76.57 250.89 76.57 733.58 494.6 974.93 912.62 733.58"/><path d="M494.6,67.29l368.01,212.47v424.94l-368.01,212.47L126.59,704.7V279.76L494.6,67.29m0-13.86l-6,3.46L120.59,269.37l-6,3.46v438.79l6,3.46,368.01,212.47,6,3.46,6-3.46,368.01-212.47,6-3.46V272.84l-6-3.46L500.6,56.9l-6-3.46h0Z"/></g><text class="cls-3" transform="translate(213.33 655.1)"><tspan x="0" y="0">AP</tspan></text></svg>