<?xml version="1.0" encoding="UTF-8"?><svg xmlns="http://www.w3.org/2000/svg" xmlns:xlink="http://www.w3.org/1999/xlink" viewBox="0 0 1024 1024"><defs><style>.cls-1{fill:none;}.cls-2{fill:#ea889d;opacity:.1;}.cls-3{fill:url(#linear-gradient);}.cls-4{clip-path:url(#clippath);}.cls-5{opacity:.12;}.cls-6{fill:#f9416d;}.cls-7{fill:#e8a185;}.cls-8{fill:#e59b7f;}.cls-9{fill:#e700a9;}.cls-10,.cls-11{fill:#eda588;}.cls-12{fill:#fff;}.cls-13{fill:#fff395;}.cls-14{fill:#f2ac8d;}.cls-15,.cls-16{fill:#f2b197;}.cls-17,.cls-18{fill:#f2b7a2;}.cls-19{fill:#fefcfc;}.cls-20{fill:#997270;}.cls-21{fill:#99565c;}.cls-22{fill:#bc616c;}.cls-23{fill:#b798a2;}.cls-24{fill:#8d9eff;}.cls-25{fill:#ce816a;}.cls-26{fill:#aa5257;}.cls-27{fill:#a88460;}.cls-28{fill:#b2908d;}.cls-29{fill:#aa9694;}.cls-30{fill:#a83858;}.cls-31{fill:#bca9a6;}.cls-32{fill:#b1737d;}.cls-33{fill:#af6a54;}.cls-34{fill:#a5636b;}.cls-35{fill:#aa5362;}.cls-36{fill:#d87d88;}.cls-37{fill:#ac696d;}.cls-38{fill:#d3777f;}.cls-39{fill:#e2c29f;}.cls-40{fill:#db9275;}.cls-41{fill:#d3b48c;}.cls-42{fill:#d9554f;}.cls-43{fill:#d991d6;}.cls-44{fill:#c96f7a;}.cls-45{fill:#e0ccd1;}.cls-46{fill:#260101;}.cls-47{fill:#260809;}.cls-48{fill:#17ffa0;}.cls-49{fill:#a37157;}.cls-50{fill:#464851;}.cls-51{fill:#4c3320;}.cls-52{fill:#602826;}.cls-53{fill:#471815;}.cls-54{fill:#7a5332;}.cls-55{fill:#7c5967;}.cls-56{clip-path:url(#clippath-1);}.cls-57{fill:url(#linear-gradient-3);}.cls-58{fill:url(#linear-gradient-4);}.cls-59{fill:url(#linear-gradient-2);}.cls-60{fill:url(#linear-gradient-6);}.cls-61{fill:url(#linear-gradient-7);}.cls-62{fill:url(#linear-gradient-5);}.cls-63{opacity:.72;}.cls-16,.cls-11{opacity:.58;}.cls-18{opacity:.5;}.cls-64{fill:#f1d2db;opacity:.81;}.cls-65{fill:#ffd4c9;opacity:.67;}</style><clipPath id="clippath"><rect class="cls-1" x="-51.1" y="-57" width="1126.1" height="1126.1"/></clipPath><clipPath id="clippath-1"><rect class="cls-1" width="1023.07" height="1023"/></clipPath><linearGradient id="linear-gradient" x1="413.23" y1="332.87" x2="161" y2="332.87" gradientTransform="matrix(1, 0, 0, 1, 0, 0)" gradientUnits="userSpaceOnUse"><stop offset="0" stop-color="#15fbff" stop-opacity=".2"/><stop offset=".18" stop-color="#15fbff" stop-opacity=".29"/><stop offset=".56" stop-color="#15fbff" stop-opacity=".51"/><stop offset="1" stop-color="#15fbff" stop-opacity=".8"/></linearGradient><linearGradient id="linear-gradient-2" x1="584.56" y1="327.13" x2="849.89" y2="327.13" xlink:href="#linear-gradient"/><linearGradient id="linear-gradient-3" x1="589.91" y1="37.36" x2="743.01" y2="282.22" gradientTransform="matrix(1, 0, 0, 1, 0, 0)" gradientUnits="userSpaceOnUse"><stop offset="0" stop-color="#db9275"/><stop offset="0" stop-color="#d99074" stop-opacity="1"/><stop offset=".5" stop-color="#79473a" stop-opacity=".95"/><stop offset=".84" stop-color="#3d1916" stop-opacity=".91"/><stop offset="1" stop-color="#260809" stop-opacity=".9"/></linearGradient><linearGradient id="linear-gradient-4" x1="474.46" y1="65.06" x2="265.28" y2="260.82" gradientTransform="matrix(1, 0, 0, 1, 0, 0)" gradientUnits="userSpaceOnUse"><stop offset="0" stop-color="#db9275"/><stop offset=".13" stop-color="#ca856b" stop-opacity=".99"/><stop offset=".39" stop-color="#9f6451" stop-opacity=".97"/><stop offset=".75" stop-color="#5a3028" stop-opacity=".93"/><stop offset="1" stop-color="#260809" stop-opacity=".9"/></linearGradient><linearGradient id="linear-gradient-5" x1="305.27" y1="369.14" x2="304.59" y2="330.42" gradientTransform="matrix(1, 0, 0, 1, 0, 0)" gradientUnits="userSpaceOnUse"><stop offset="0" stop-color="#ccc" stop-opacity=".8"/><stop offset=".16" stop-color="#ccc" stop-opacity=".8"/><stop offset=".28" stop-color="#c6c6c6" stop-opacity=".77"/><stop offset=".41" stop-color="#b5b5b5" stop-opacity=".71"/><stop offset=".55" stop-color="#9a9a9a" stop-opacity=".6"/><stop offset=".69" stop-color="#747474" stop-opacity=".45"/><stop offset=".84" stop-color="#424242" stop-opacity=".26"/><stop offset=".98" stop-color="#070707" stop-opacity=".03"/><stop offset="1" stop-color="#000" stop-opacity="0"/></linearGradient><linearGradient id="linear-gradient-6" x1="705.7" y1="365.64" x2="698.94" y2="327.28" xlink:href="#linear-gradient-5"/><linearGradient id="linear-gradient-7" x1="127.28" y1="1024.02" x2="127.28" y2="495.33" gradientTransform="matrix(1, 0, 0, 1, 0, 0)" gradientUnits="userSpaceOnUse"><stop offset="0" stop-color="#2702b1" stop-opacity=".8"/><stop offset=".13" stop-color="#2401a3" stop-opacity=".82"/><stop offset=".37" stop-color="#1c017f" stop-opacity=".86"/><stop offset=".68" stop-color="#0f0045" stop-opacity=".92"/><stop offset="1" stop-color="#000"/></linearGradient></defs><g id="real_bg"><rect class="cls-12" x="-51.1" y="-57" width="1126.1" height="1126.1"/><g class="cls-4"><path class="cls-48" d="M159.39,74.62c-6.99,48.08-16.55,106.5,14,148.21-4.76-21.9-9.71-43.77-13.96-65.76-4.13-21.41-5.93-42.84-.24-64.15,5.56-20.84,14.88-40.44,20.26-61.36,7.43-28.9,10.32-58.83,8.67-88.55h-34.64c3.2,12.94,6.03,25.98,8.09,39.08,4.92,31.1,2.34,61.56-2.18,92.53Z"/><path class="cls-24" d="M80.67,99.61c15.62,24.08,30.8,48.42,47.2,72.01,12.22,17.58,24.92,34.83,38.02,51.76-11.89-18.08-17.73-39.63-19.64-61.34-2.53-28.5,2.01-56.83,6.17-84.96,4.93-33.41,7.74-66.02,1.73-99.5-2.09-11.57-4.64-23.1-7.48-34.57H-51.1V-29.61c8.01,3.9,15.82,8.2,23.4,12.89C18.7,11.97,51.41,54.45,80.67,99.61Z"/><path class="cls-9" d="M79.82,255.75c27.13,1.32,55.65-.7,80.62-11.48-20.36-12.83-36.3-31.17-51.22-49.92-14.81-18.63-29.1-37.79-46.97-53.65C43.72,124.22,22.25,111.34-.29,101.16c-16.47-7.43-33.5-13.46-50.81-18.56V244.13c4.01-.16,8.03-.23,12.04-.2,39.95,.35,79.06,9.9,118.88,11.82Z"/><path class="cls-43" d="M-17.83,344.61c12.87-17.2,32.28-26.38,52.27-32.73,22.79-7.23,46.08-11.9,67.58-22.76,19.84-10.02,37.88-23.07,55.51-36.55-7.16,2.74-14.57,4.85-22.17,6.38-37.31,7.5-75.27,2.25-112.51-2.82-24.3-3.31-49.34-6.43-73.94-5.32v195.29c4.94-11.58,7.9-24.25,10.37-36.24,4.64-22.48,8.81-46.42,22.9-65.25Z"/><path class="cls-13" d="M167.6,240.89c.85-.44,1.7-.89,2.54-1.35-17.95-22.68-35.17-45.93-51.55-69.77C87.42,124.43,61.2,74.83,23.67,34.21,2.23,11.02-23.16-8.04-51.1-22.12V75.82c43.78,12.75,86.67,31.37,120.56,62.52,34.82,31.97,56.41,78.34,98.14,102.56Z"/><path class="cls-24" d="M453.79,77.34c-28.31,21.3-61.73,35.1-95.63,44.71-19.34,5.49-39.49,8.83-57.87,17.27-16.25,7.46-31.68,16.92-47.44,25.39-25.95,13.94-54.86,29.9-67.43,57.87,53.53-31.96,118.34-36.49,179.39-38.41,68.75-2.17,137.54-.57,206.3-.78,34.38-.1,68.76-.63,103.1-2.34,30.16-1.51,60.54-4.15,89.74-12.32,28.63-8.01,54.5-21.92,76.7-41.7,21.25-18.94,38.84-41.51,55.29-64.62,28.08-39.41,55.35-79.43,82.64-119.41h-435.46c-6.61,16.91-14.55,33.48-22.68,49.63-16.45,32.71-37.17,62.51-66.66,84.71Z"/><path class="cls-42" d="M194.96-29.24c-.84,21.08-3.89,42.12-9.15,62.55-5.4,20.93-14.71,40.51-20.26,61.35-6.14,23.08-2.88,46.03,1.94,69.03,3.44,16.43,6.98,32.85,10.52,49.26,5.04-26.17,17.38-50.64,35.04-70.62,18.37-20.78,41.52-34.66,67.62-43.57,15.18-5.18,30.47-9.72,44.88-16.89,13.16-6.54,25.59-14.54,37.27-23.46,12.51-9.56,24.17-20.22,35.22-31.42,10.96-11.11,22.2-22.5,27.84-37.35,5.66-14.91,6.39-30.79,4.84-46.64H194.73c.52,9.24,.59,18.5,.23,27.76Z"/><path class="cls-13" d="M430.61-4.58c-6.2,14.19-17.17,25.36-27.89,36.24-10.39,10.52-21.32,20.54-32.98,29.68-11.8,9.25-24.28,17.64-37.59,24.57-14.09,7.34-28.94,12.35-43.98,17.3-27.84,9.18-52.14,22.59-71.52,45.01-15.03,17.4-25.69,38.24-30.99,60.52,15.13-22.82,40.59-37.23,64.56-50.08,15.82-8.49,31.28-18.06,47.64-25.44,17.6-7.94,36.57-11.46,55.07-16.54,34.06-9.37,67.53-22.84,96.09-43.96,30.57-22.61,51.27-53.95,67.85-87.69,6.76-13.74,13.48-27.73,19.19-42.02h-98.79c1.68,17.89,.58,35.82-6.68,52.41Z"/><path class="cls-43" d="M835.73,713.89c-39.03-17.94-77.19-38.48-110.91-65.3-32.07-25.51-57.44-56.82-77.9-92.2-19.79-34.19-35.53-70.51-53.84-105.49-18.2-34.78-39.31-68.56-68.57-95.18-29.9-27.21-66.53-45.77-104.7-58.39-38.57-12.76-78.8-19.92-119.03-25.01-31.46-3.98-63.85-5.99-94.51-14.26,15.23,8.1,31.57,14.25,47.73,20.14,18.02,6.55,36.29,12.45,54.57,18.28,35.71,11.39,71.62,22.6,105.75,38.25,33.13,15.2,64.05,35.05,89.36,61.47,24.09,25.14,43.03,54.64,60.35,84.7,34.73,60.26,64.74,127.11,121.01,170.91,32.91,25.61,71.92,41.83,110.6,56.6,40.56,15.48,81.06,30.96,121.04,47.89,53.59,22.7,106.4,47.22,158.32,73.5v-42.89c-37.28-6.09-74.19-14.44-110.43-24.99-44.05-12.81-87.15-28.87-128.84-48.02Z"/><path class="cls-48" d="M128.11,937.79c11.6-9.14,23.39-18.33,33.74-28.91,5.73-5.85,11.05-12.53,13.5-20.47,2.82-9.11,1.32-18.85-.65-27.97-6.73-31.1-21.48-59.64-38.83-86.07-35.41-53.93-82.27-100.62-107.83-160.7-12.49-29.35-18.79-61.03-14.97-92.9,3.9-32.58,16.72-63.26,32.09-91.99,16.72-31.25,36.05-61.25,55.5-90.86,15.92-24.25,32.44-48.1,49.46-71.58-16.34,12.09-33.27,23.39-51.79,31.84-40.23,18.38-95.84,17.47-118.09,62.17-15.4,30.91-13.59,70.95-31.36,100.38v608.38H38.7c3.83-25.02,10.72-49.56,25.33-70.65,16.95-24.46,40.96-42.47,64.08-60.67Z"/><path class="cls-9" d="M986.4-57c-12.31,17.85-24.6,35.71-36.91,53.57-19.98,29-39.36,58.58-60.66,86.63-16.88,22.25-35.45,43.37-57.86,60.24-23.16,17.43-49.96,28.54-78.15,34.88-29.88,6.73-60.63,8.62-91.15,9.89-34.17,1.41-68.37,1.78-102.56,1.79-69.02,.01-138.08-1.47-207.06,1.21-56.35,2.19-115.45,8.09-164.55,37.82,.92,.13,1.76,.64,2.34,1.31,70.25-13.41,142-18.65,213.45-15.32,34.02,1.58,67.95,5.11,101.58,10.5,33.97,5.44,67.6,12.71,101.32,19.48,67.09,13.45,134.96,24.22,203.43,15.71,95.98-11.91,183-53.51,265.37-102.68V-57h-88.6Z"/><path class="cls-13" d="M761.34,701.78c-36.14-15.24-70.99-33.97-99.44-61.36-50.92-49.01-78.46-115.8-114.81-175.14-18.27-29.82-39.13-58.38-65.83-81.25-29.05-24.88-63.72-42.1-99.22-55.72-35.78-13.74-72.68-24.23-108.97-36.48-17.87-6.03-35.62-12.47-52.94-19.96-12.77-5.52-25.23-11.92-36.33-20.22,.92,4.16,1.97,8.28,3.15,12.37,24.92,86.56,98.78,145.45,171.91,191.4,37.85,23.79,77.98,45.01,111.13,75.44,27,24.79,48.25,55.11,65.51,87.29,35.91,67.03,55.81,141.1,89.33,209.23,17.05,34.66,37.99,66.96,63.87,95.71,26.2,29.1,56.34,54.41,88.44,76.74,37.94,26.38,78.34,48.75,119.7,69.27h178.16v-231.95c-63.59-32.3-128.51-61.96-194.56-88.83-39.48-16.06-79.84-29.97-119.1-46.54Z"/><path class="cls-42" d="M793.6,269.01c-68.64,5.95-136.64-6.95-203.61-20.58-33.69-6.85-67.39-13.87-101.45-18.76-34.52-4.96-69.36-7.84-104.22-8.73-66.95-1.73-133.98,4.07-199.65,17.12-1,.71-2.02,1.42-3.05,2.1,.08,.51,.15,1.01,.24,1.53,.78,.67,1.57,1.34,2.38,2,7.46,3.13,15.13,5.73,22.96,7.86,22.14,6.03,44.99,8.61,67.73,11.13,19.96,2.22,39.9,4.66,59.73,7.86,39.29,6.33,78.41,15.49,115.17,30.99,35.99,15.18,69.22,36.69,95.54,65.76,26.1,28.81,45.02,63.1,62.3,97.69,17.49,35.01,33.54,70.9,54.59,103.99,22.67,35.64,51.93,65.29,86.63,89.31,36.07,24.96,75.93,44.4,116.26,61.41,42.79,18.05,86.98,32.82,131.99,44.25,25.72,6.53,51.7,11.95,77.86,16.25V165.76c-30.56,18.15-61.76,35.18-94.06,50.09-59.15,27.31-122.19,47.51-187.35,53.16Z"/><path class="cls-13" d="M320.85,925.18c-3.92-63.11-22.61-125.18-53.37-180.37-15.4-27.62-33.79-53.56-54.95-77.06-20.8-23.09-45.08-41.92-67.71-63.05-22.5-21.02-40.45-45.36-43.81-76.78-1.87-17.34-.06-34.85,1.43-52.15,1.39-16.22,2.93-32.43,4.9-48.58,6.53-53.18,18.11-107.38,45.65-153.63-.24,.33-.48,.67-.74,1.01-20.89,29-40.96,58.59-60.18,88.74-18.54,29.11-37.25,58.54-51.8,89.9-14.22,30.68-23.81,64.01-21.41,98.1,2.29,32.38,14.82,63.05,30.89,90.9,31.92,55.35,78.61,100.69,108.76,157.17,7.26,13.6,13.5,27.81,18.1,42.54,4.52,14.48,9.4,31.42,5.56,46.55-3.59,14.12-14.76,24.74-25.28,34.08-11.28,10.01-23.27,19.17-35.1,28.52-23.12,18.24-46.43,37.71-60.29,64.27-8.76,16.8-13.42,35.1-16.26,53.76H310.42c6.33-47.8,13.44-95.51,10.44-143.92Z"/><path class="cls-24" d="M662.57,939.62c-45.1-57.28-81.85-120.37-122.03-181.04-20.75-31.33-42.45-62.11-66.63-90.9-24.35-28.99-51.46-55.23-80.16-79.86-56.49-48.48-119.02-91.37-168.62-147.37-22.77-25.72-42.49-55.03-51.99-88.36-8.47-29.65-8.03-60.59-4.19-90.98-2.77,3.87-5.43,7.81-7.95,11.84-34.22,54.84-44.21,120.76-50.25,183.98-3.18,33.21-9.82,70.55,5.64,101.68,13.47,27.12,38.34,46.31,60.79,65.65,47.08,40.56,85.08,90.47,111.11,146.96,25.72,55.81,39.85,117.01,39.94,178.53,.06,40.08-5.74,79.7-11.04,119.35h489.28c-56.94-31.58-103.9-78.64-143.91-129.48Z"/><path class="cls-42" d="M664.95,904.97c-23.54-30.29-41.82-63.93-57.33-98.94-30.75-69.47-51.37-144.09-91.92-208.91-21.69-34.66-49.23-63.83-82.73-87.32-37.57-26.34-78.34-47.69-115.88-74.12-64.18-45.21-123.53-106.23-140.11-184.82-.84,5.43-1.58,10.89-2.2,16.36-4.29,38.68-1.31,77.29,16.18,112.55,15.62,31.46,39.22,58.2,64.33,82.42,53.47,51.62,115.01,93.89,169.46,144.39,54.28,50.34,96.93,110.38,136.92,172.3,38.58,59.75,75.42,120.95,121.35,175.48,38.74,45.97,83.96,87.27,137.6,114.72h61.53c-46.58-23.61-91.81-49.84-133.2-81.76-31.13-24.02-59.84-51.27-84.01-82.37Z"/></g><rect class="cls-63" x="-51.1" y="-57" width="1126.1" height="1126.1"/></g><g id="bg"><g class="cls-56"><path class="cls-7" d="M820.04,746.39s-.05,.13-.16,.39c-.03,.1-.08,.22-.13,.36-.11,.3-.26,.68-.43,1.15-.07,.18-.14,.37-.21,.57-.08,.2-.16,.42-.24,.65-.08,.22-.17,.46-.26,.71-.09,.25-.18,.51-.28,.78-.28,.82-.61,1.74-.95,2.77-.24,.68-.48,1.41-.73,2.17-.26,.77-.52,1.58-.8,2.44-.14,.42-.27,.86-.42,1.31-.14,.44-.28,.9-.43,1.37-.22,.7-.44,1.42-.66,2.17-.12,.38-.23,.76-.35,1.14-.12,.39-.23,.77-.35,1.17-.16,.53-.31,1.06-.48,1.61-.11,.38-.22,.76-.33,1.15-.05,.17-.09,.34-.15,.51-.15,.56-.32,1.14-.49,1.72-.12,.46-.25,.92-.38,1.39-.08,.29-.16,.58-.24,.88-.24,.88-.49,1.79-.73,2.71-.08,.3-.17,.6-.24,.91-.11,.4-.22,.81-.32,1.23-.22,.82-.44,1.66-.65,2.52-.11,.42-.21,.85-.32,1.29-.39,1.53-.77,3.1-1.15,4.72-.34,1.44-.68,2.91-1.01,4.4-.3,1.34-.6,2.7-.88,4.09-.4,1.86-.79,3.77-1.17,5.72-.27,1.34-.53,2.71-.78,4.09-.02,.12-.05,.24-.07,.36-.07,.39-.14,.79-.21,1.19-.29,1.57-.57,3.17-.84,4.79-.19,1.12-.37,2.25-.55,3.39-.11,.69-.22,1.37-.32,2.07-.04,.22-.07,.45-.1,.68-.03,.14-.05,.29-.07,.43-.02,.14-.04,.27-.06,.41-.14,.89-.27,1.79-.39,2.7-.03,.22-.06,.43-.09,.65-.16,1.11-.31,2.22-.45,3.35-.15,1.14-.29,2.28-.43,3.42-.01,.06-.01,.12-.02,.18,0,.06,0,.11-.02,.17s-.01,.11-.02,.17h0c-.24,2.04-.47,4.09-.67,6.17-.01,.05-.01,.11-.02,.16-.01,.1-.02,.21-.03,.31-.08,.76-.15,1.52-.22,2.28-.04,.45-.08,.9-.12,1.35-.24,2.64-.45,5.32-.62,8.03-.04,.6-.08,1.21-.11,1.81-.03,.39-.05,.78-.07,1.17-.01,.21-.02,.43-.03,.65,0,.03,0,.07,0,.1-.01,.22-.02,.43-.03,.64-.15,2.64-.25,5.31-.32,8.01-.04,1.37-.07,2.76-.08,4.15-.07,4.26-.04,8.57,.09,12.93,.01,.58,.03,1.15,.05,1.73,.03,.87,.06,1.74,.1,2.62,.07,1.66,.16,3.32,.26,4.99,.01,.09,.01,.18,.02,.27,.1,1.65,.22,3.29,.35,4.94,.17,2.18,.38,4.36,.6,6.56,.07,.6,.13,1.2,.2,1.8,.08,.71,.16,1.43,.25,2.15,.1,.88,.21,1.76,.33,2.65,.07,.52,.14,1.05,.21,1.59,.07,.55,.15,1.11,.23,1.66,.14,1.02,.3,2.03,.46,3.05,.16,1.02,.32,2.05,.49,3.07,.09,.52,.18,1.04,.27,1.55,.08,.47,.16,.95,.26,1.42,.09,.57,.2,1.14,.31,1.7,.05,.29,.1,.57,.16,.85,.03,.16,.06,.31,.09,.47,.03,.13,.05,.27,.08,.4,.1,.55,.22,1.1,.33,1.65,.13,.68,.27,1.36,.42,2.04,.19,.9,.38,1.79,.59,2.69,.26,1.16,.52,2.31,.8,3.47,.14,.58,.28,1.15,.43,1.73,.18,.75,.37,1.51,.57,2.26,.2,.77,.4,1.53,.61,2.29,.15,.56,.3,1.12,.46,1.67,.19,.71,.39,1.41,.6,2.11,.31,1.06,.62,2.13,.95,3.19,.22,.72,.44,1.43,.67,2.15,0,.04,.02,.08,.04,.12l.78,2.43c.05,.12,.09,.25,.13,.38,.28,.84,.57,1.67,.86,2.51,.31,.89,.63,1.79,.95,2.68l-9.93,70.96H253.89l20.6-61.98,13.24-39.84,1.96-5.89,11.08-33.33h0l7.47-22.49,23.19-3.05,88.11-11.61h.01l121.04-15.94h0l59.21-7.8,218.44-142.72c.06,1.74,.12,3.47,.18,5.18,.04,1.14,.08,2.27,.11,3.4v.04c.04,1.11,.08,2.21,.11,3.3,0,.12,0,.23,0,.34,.02,.6,.04,1.2,.06,1.8,.03,1.19,.07,2.37,.11,3.54,.03,1.05,.06,2.08,.1,3.11,0,.12,0,.23,.01,.35,.01,.57,.03,1.14,.05,1.7,0,.12,0,.25,.01,.37,.02,.72,.04,1.44,.06,2.15,.03,.81,.05,1.6,.07,2.39,.01,.59,.03,1.19,.05,1.78h0c.03,1.37,.07,2.7,.11,4.01,.02,.7,.04,1.39,.05,2.07,0,.5,.03,1,.04,1.49,.01,.15,.01,.3,.02,.45h0v.1c0,.44,.02,.88,.03,1.32,.02,.66,.03,1.31,.05,1.95,0,.15,.01,.31,.01,.46,.02,.91,.05,1.79,.07,2.65,.01,.34,.02,.67,.02,1,0,.17,.01,.33,.01,.5,0,.16,0,.32,0,.49,.08,3.25,.15,6.2,.2,8.79,.01,.52,.02,1.02,.03,1.51s.02,.96,.03,1.42c.01,.25,.01,.5,.02,.74,0,.2,.01,.4,.01,.59,.01,.37,.02,.72,.02,1.07,.09,4.47,.13,6.98,.13,6.98Z"/><path class="cls-33" d="M350.93,950.35s-26.15,42.63-17.44,73.65h-62.28l3.28-61.98,1.38-26.02,11.86-13.82,27.48-32.02s26.52,20.45,34.96,40.72c2.82,6.76,3.63,13.51,.76,19.47Z"/><path class="cls-33" d="M839.04,756.33l-16.85,150.67-5.29,117h-48c-18.1-57,7.82-176.01,13.64-175.41l19.79-32.31,2.8-4.58,33.91-55.37Z"/><path class="cls-33" d="M844.33,777.05s-17.38,22.14-44.32,57.56c-28.17,37.01-66.81,88.52-107.01,144.39-13.16,18.29-28.23,33.13-44.26,45h-205.5c-31.18-36.17-112.91-87-112.91-87l12.71-10.81,5.24,4.86s.56,.57,1.62,1.6c9.74,9.57,61.41,58.92,96.07,65.04,38.4,6.77,115.2,0,115.2,0,0,0,45.74-3.95,85.27-38.4,39.53-34.45,98.83-89.22,98.83-89.22l58.77-64.04,2.73-2.98,20.38-22.21s1.89-2.75,4.8-7.23l12.38,3.44Z"/><path class="cls-54" d="M965.5,820.94l-5.03,203.06h-172.37c-2.26-65.03,3.69-126.79,10.72-174.28,2.07-14.01,4.24-26.78,6.31-38.02,.56-2.99,1.1-5.88,1.64-8.65,5.31-27.48,9.65-43.81,9.65-43.81l45.44-50.43h0l2.37-2.63h0l17.69-19.64,83.58,134.4Z"/><path class="cls-54" d="M350.17,930.88c-.08,.59-.17,1.18-.27,1.77-1.33,7.87-4.01,15.47-8.21,22.69,0,0-38.02,23.25-26.73,68.66H117.55l6.54-157.89,11.29-202.16s11.2,7.74,28.49,20.95h0c3.41,2.61,7.06,5.43,10.9,8.45,46.33,36.34,121.39,101.13,156.66,164.07,4.8,8.57,8.87,17.11,12.02,25.53h0c6.23,16.61,8.91,32.78,6.72,47.93Z"/><path class="cls-54" d="M178.11,1024H51.68l-21.11-420.8,45.99-241.7,.02,.03v.02l.05,.08c.91,2.14,11.85,27.72,26.38,66.11,0,.03,0,.05,.02,.08,.01,0,.01,.02,.01,.03,.23,.6,.46,1.2,.69,1.81,25.68,68.05,62.1,174.99,74.65,263.69,1.58,11.11,2.78,21.92,3.53,32.34h0s.01,.03,.01,.04c1.68,23.2,1.18,44.44-2.27,62.45,0,0-25.97,67.77-5.64,126.5,16.09,46.48,8.12,92.25,4.1,109.32Z"/><path class="cls-14" d="M911.59,411.52l-5.08,151.35s-3.69,12.45-8.86,30.22c-10.32,35.49-26.51,92.17-30.86,113.08h0c-.44,2.14-.76,3.88-.94,5.21-.22,1.65-.64,3.48-1.21,5.44h-.01v.02c-.62,2.12-1.43,4.4-2.38,6.79-5.62,14.09-16.31,32.03-23.91,44.02-4.98,7.87-8.63,13.19-8.63,13.19l-20.38,22.21-61.5,67.02s-59.3,54.77-98.83,89.22-85.27,38.4-85.27,38.4c0,0-28.62,2.52-59.66,2.94-2.07,.03-4.15,.05-6.23,.06-1.86,.01-3.72,.01-5.58,0-15.98-.09-31.73-.88-43.73-3-34.66-6.12-86.33-55.47-96.07-65.04-1.06-1.03-1.62-1.6-1.62-1.6l-15.91-14.76-46.21-42.84s-38.4-37.83-71.15-79.72c-15.15-19.38-27.64-45.51-36.7-68,0-.01-.01-.02-.01-.03h0c-6.97-17.36-11.91-32.55-14.43-40.79h0c-1.28-4.18-1.94-6.57-1.94-6.57,0,0-3.97-15.22-9.35-35.79-6.09-23.23-13.99-53.29-20.04-75.94-1.27-4.77-2.46-9.22-3.54-13.2-.99-3.68-1.88-6.96-2.65-9.74-5.85-21.19-18.08-75.71-25.98-111.56,0-.02,0-.04-.01-.06-.31-1.43-.63-2.83-.93-4.2,0-.01,0-.02-.01-.03-.01-.03-.01-.05-.02-.08-1.15-5.22-2.19-9.96-3.08-14.03-2.04-9.36-3.29-15.17-3.29-15.17l-1.79-3.3-13.13-24.23-5.09-9.38-.04-.08v-.02l-.03-.03-5.33-9.83,.2-2.08,8.27-85.45,7.89-51.31,2.37-15.41h0l5.87-38.14,.81-5.26V73.83L125.63,3.05l1.3-3.05H849.47l59.86,55.76,.1,29.26,.29,85.22,.07,22.13,.11,31.22,1.69,187.93Z"/><path class="cls-11" d="M131.09,543.15c-1.18-4.28-2.28-8.27-3.28-11.84-.92-3.3-1.74-6.24-2.45-8.74-5.42-19.01-16.75-67.92-24.06-100.08,0-.02,0-.04,0-.05-.29-1.28-.58-2.54-.86-3.77,0,0,0-.02,0-.03,0-.03,0-.04-.02-.07-1.07-4.68-2.03-8.93-2.85-12.59-1.89-8.4-3.05-13.61-3.05-13.61l-13.82-24.7c9.53-18.34,20.37-28.98,20.37-28.98,0,0,155.16,115.34,160.49,236.92,5.02,114.8-41.14,60.62-130.44-32.47Z"/><path class="cls-2" d="M135.73,536.96c-1.04-3.78-2.02-7.31-2.9-10.47-.81-2.92-1.54-5.52-2.17-7.73-4.79-16.81-14.81-60.06-21.28-88.5,0-.02,0-.03,0-.05-.25-1.13-.52-2.25-.76-3.33,0,0,0-.02,0-.02,0-.02,0-.04-.02-.06-.94-4.14-1.79-7.9-2.52-11.13-1.67-7.43-2.69-12.03-2.69-12.03l-12.22-21.84c8.43-16.22,18.01-25.63,18.01-25.63,0,0,137.22,102.01,141.93,209.53,4.44,101.52-36.39,53.61-115.36-28.72Z"/><path class="cls-11" d="M851.99,370.65s-138.55,103.09-162.11,184.39,10.89,91.29,47.34,83.29,120.69-77.81,120.69-77.81l-5.92-189.87Z"/><path class="cls-2" d="M844.55,404.75s-110.12,81.94-128.85,146.56,8.66,72.56,37.62,66.2c28.97-6.36,95.93-61.85,95.93-61.85l-4.71-150.91Z"/><path class="cls-10" d="M153.21,323.38s39.09,85.17,102.55,93.62,142.24-39.11,142.24-39.11l-161-15.31-83.79-39.2Z"/><path class="cls-10" d="M614.78,380.11s32.65,31.32,88.32,29.22c7.34-.28,13.92-.67,19.81-1.15,28.53-2.31,55.13-15.31,74.5-36.38s38.65-46.2,32.75-59.24c-10.32-22.81-59.29,27.62-59.29,27.62l-91.2,22.4-64.89,17.53Z"/><path class="cls-25" d="M849.26,296.89s-5.7,77.19-109.15,89.32,62.09-55.75,62.09-55.75l47.05-33.57Z"/><path class="cls-25" d="M146.86,305s12.87,81.47,75.73,92.73,84.17-5.2,84.17-5.2l-114.21-65.77-45.69-21.76Z"/><path class="cls-6" d="M409.97,386.21h.41s-21.39-40.71-66.32-39.25c-35.09,1.14-75.06,4.31-75.06,4.31l-65.85-5.77s4.85,42.5,43.18,53.17c38.33,10.67,86.33-3.43,86.33-3.43,0,0,50.28-17.94,75.82-9.18,.52,.01,1.01,.06,1.48,.15Z"/><path class="cls-10" d="M448.67,395.33c-5.77-12.94-18.89-23.71-35.63-32.62-1.77-22.62-16.6-55.98-82.71-74.15-92.54-25.44-152.35,9.97-166.23,19.51-6.65-2.91-12.32-6.35-16.43-10.4-26.34-26-13.67-50.34-9-48.67,4.66,1.67,34,7.67,167.07,16.33,133.07,8.67,142.93,130,142.93,130Z"/><path class="cls-3" d="M410.38,386.21s26.19-68.45-80.04-97.65-169.33,21.78-169.33,21.78l127.11,35.16s99.6-.18,122.26,40.71Z"/><path class="cls-10" d="M539.33,388.57c1.11-6.24,2.7-12.41,4.4-18.33,7.24-25.2,17.75-49.89,32.72-71.49,18.35-26.47,44.49-47.66,76.99-52.87,90.84-14.57,96.44-20,96.44-20,0,0-15.68,33.33-42.29,42.67s-73.71,46.41-89.71,51.43c-11.07,3.47-18.13,21.56-22.63,30.89-3.31,6.85-5.63,14.25-8.82,21.05-1.86,3.96-5.18,7.47-7.38,11.31-1.3,2.27-5.95,8.7-5.51,11.32l-2.21-13.14c-4.17,7.11-8.03,14.41-11.54,21.88-.49-10.07,1.45-20.26,5.61-29.45-1.31,.07-2.31,1.14-3.16,2.14-8.94,10.5-17.1,21.65-24.39,33.35-.41-6.83,.24-13.83,1.48-20.75Z"/><path class="cls-59" d="M584.56,385.44s224.3-55.68,235.48-66.5,29.85-25.41,29.85-25.41c0,0-66.67-33.86-123.11-22.3s-127.11,33.78-142.22,114.22Z"/><path class="cls-10" d="M563.33,618.61c-1.81,2.39,39.67,1.44,36.33-37.75s-12.67-48.52-24.67-67.19-20.51-47.33-23.42-56.33-2.58,26.33-2.58,26.33c0,0-14.91-47-11.79-54.33,0,0-2.21,47.67,4.12,82.67s-1.82,53.36-1.82,53.36c0,0-28.5,38.3-45.51,43.97s-50.25-28.62-49.45-28.48-29.23-4.52-10.89-68.86c18.33-64.33,17.13-84.67,17.13-84.67,0,0-14.13,51-20.47,54.33,0,0,.12-6.33-2.61-20,0,0,1.04,20.67-5.01,37s-34.38,57-33.71,78-.79,38.67,35.44,45.33c0,0-15.71-33.1,11.23-33.1s50.67,33.1,50.67,33.1l45.67-28.87,42-.83s4,6.91-10.67,26.3Z"/><path class="cls-30" d="M584.64,385.45c.33,.03,1.64,.13,3.55,.25-2.11-.06-3.25-.2-3.55-.25Z"/><path class="cls-6" d="M602,385.99c1.74-.12,13.02-1.77,14.74-2.07,6.95-1.2,37.93-1.45,50.32,4.18,35.59,16.16,80.26,3.63,103.81-10.65s38.13-47.97,38.13-47.97l-209.14,45.27-15.3,10.7s8.29,1.19,17.44,.54Z"/><path class="cls-52" d="M605.15,744.92c-15.02,5.38-34.19,14.32-34.19,14.32-16.94,.05-35.01,7.86-35.01,7.86-6.78-.75-29.37,3.77-29.37,3.77-8.66-1.51-35.01-1.89-35.01-1.89-6.02-5.27-39.15-3.76-58.73-9.74-5.21-1.59-9.09-3.12-11.98-4.49,5.13-1.28,9.32-2.55,11.61-3.41,7.9-2.95,39.15-1.93,39.15-1.93,18.45,5.27,48.19-1.89,48.19-1.89,20.33,8.66,47.81-1.5,47.81-1.5,12.42,2.63,49.95-2.26,49.95-2.26,2.57,.48,5.1,.86,7.58,1.16Z"/><path class="cls-8" d="M558,555.67s-18.67-7.86-43.34,32.13c-6.79,11.01-37.79,15.66-52.06,1.1s-36.62-36.56-49.95-26.9-26.99,52.67,16.01,44.67c0,0,19.59-4.98,47.05,20.33,0,0,21.16,13.38,40.73-7.48s43.36-12.97,48.9-9.19,30-7.34,28.33-26.67-24.56-30.26-35.67-28Z"/><path class="cls-25" d="M468.33,600.33s15.34,15.33,34.67,4.33,18.99-13,21.66-19.33,14-27.43,31.33-24.55,3.85,11.88,5.93,17.55,21.1,7.27,20.25,14.8-49.85,4.64-49.85,4.64c0,0-12.87,11.7-20.33,18.94-9.11,8.84-29.95,10.48-39.15,.84-23.3-24.42-41.85-20.89-41.85-20.89,0,0-13.36,9-18.35,7.67-4.59-1.23-12.02-7.13-2.82-13.7,1.38-.98,2.95-1.65,4.58-2.1,2.48-.68,6.63-2.59,5.92-7.69-1-7.19-1.11-17.97,10-12.19,15.15,7.88,17.56,20.23,38,31.67Z"/><path class="cls-40" d="M517.79,847.57c-98.7,28.96-134.75-32.95-145.41-59.66,.67,.83,1.35,1.66,2.03,2.49,5.9,7.18,12.11,14.28,18.1,20.37,22.97,23.34,49.32,30.12,49.32,30.12,0,0,24.47,9.03,63.25,7.53,4.43-.17,8.67-.46,12.71-.85Z"/><path class="cls-53" d="M438.07,757.32c-10.19-2.02-16.37-4.56-20.13-7.12-.47,.05-.92,.12-1.35,.19-.48,.07-.94,.15-1.38,.23-.43,.08-.84,.17-1.22,.27-.19,.04-.38,.09-.55,.14-.35,.1-.68,.2-.97,.31-1.4,.52-3.5,1.2-6.1,1.94-.32,.09-.64,.18-.97,.27-.21,.06-.43,.12-.65,.18-.49,.13-.99,.27-1.5,.4l-.33,.09c-.42,.11-.84,.22-1.28,.33-.25,.07-.51,.13-.77,.2,2.88,1.38,6.76,2.9,11.97,4.49,9.02,2.76,20.92,3.92,31.72,4.9-3.32-3.82-6.49-6.82-6.49-6.82Z"/><path class="cls-46" d="M424.44,761.81c-4.15-.67-8.09-1.5-11.6-2.57-5.21-1.59-9.09-3.11-11.97-4.49,5.12-1.28,9.31-2.55,11.6-3.41,.48-.18,1.05-.34,1.69-.49,3.25,3.31,7.01,7.32,10.28,10.96Z"/><path class="cls-53" d="M597.57,743.76c2.56,.48,5.08,.86,7.55,1.17-15.01,5.38-34.16,14.31-34.16,14.31-.62,0-1.23,.01-1.85,.04,3.28-5.88,8.39-10.44,13.79-13.9,8.33-.79,14.67-1.62,14.67-1.62Z"/><path class="cls-53" d="M620.75,740.96v4.91c-4.95,.01-10.18-.27-15.63-.94,6.75-2.42,12.67-4.12,15.63-3.97Z"/><path class="cls-57" d="M626.77,213.78s32.09-37.73,42.26-37.17l-8.47,13.55s46.87-29.36,63.81-25.98c0,0-12.99,5.65-13.55,9.6,0,0,96-22.02,113.51-5.65,0,0-10.73-2.26-11.86,.56,0,0,29.36,5.24,39.53,22.38v30.7s-17.51-10.16-41.22-5.08-45.18,12.42-45.18,12.42l11.29-9.04-85.27,29.36,8.47-9.04-59.86,22.22c-10.32,3.83-20.8,7.22-30.98,11.4-8.7,3.57-17.02,8.25-26.05,10.99-6.16,1.86-27.11-32.19-17.51-48l7.91,5.65s0-40.09,11.86-40.66c0,0-5.65,17.03,4.52,21.79,0,0,24.28-42.68,47.44-38.16,0,0-8.28,5.17-10.64,28.13Z"/><path class="cls-58" d="M413.97,281.38s-.75-38.02-13.55-43.29c0,0,1.51,8.66,0,10.92,0,0-9.04-33.51-21.08-32.75,0,0,1.88,11.67,0,15.44,0,0-15.81-36.89-45.18-35.39,0,0,4.14,7.53,3.39,12.8,0,0-51.2-21.84-75.29-16.56,0,0,10.54,3.76,11.29,6.4,0,0-68.14-16.56-98.64-4.52,0,0,6.78,.38,10.92,3.76,0,0-40.66,4.14-51.58,29.36l-6.78,14.68s25.6-8.66,39.53-1.51c0,0-3.39,1.88-9.04,1.51,0,0,30.49,4.89,37.27,1.13,0,0,36.52,13.18,44.8,12.8,0,0-7.15-4.89-6.4-9.04,0,0,37.65,16.19,54.59,14.31,0,0,22.59,4.14,31.25,3.01,0,0,25.62,4.6,51.58,15.06s42.92,1.88,42.92,1.88Z"/><path class="cls-47" d="M601.45,355.24s57.98-88.32,194.26-70.14c0,0-118.96-17.2-194.26,70.14Z"/><path class="cls-47" d="M381.22,338.68s-30.49-70.4-178.07-35.39c0,0,131.39-30.68,178.07,35.39Z"/><path class="cls-47" d="M401.45,547.86c-10.76,20.19-17.89,53.84,7.92,65.44,4.21,1.96,8.38,3.58,12.34,6.13l-.05,.19c-1.46,.08-2.89-.03-4.33-.22-4.24-.63-8.36-2.55-11.77-5.12-.7-.45-1.62-1.24-2.26-1.79-1.31-.99-3.06-2.72-4.24-3.88-.78-.9-1.54-1.85-2.3-2.76-.89-1.33-1.96-2.82-2.65-4.27-5.45-10.2-4.46-22.48-1.51-33.21,2.05-7.21,4.97-14.14,8.67-20.61l.17,.1h0Z"/><path class="cls-47" d="M587.2,544.95c9.41,17,17.09,40.74,4.51,58.08-.77,.91-1.52,1.86-2.3,2.76-.76,.67-2.34,2.38-3.14,2.96-1.04,.84-2.25,1.98-3.37,2.71-3.41,2.58-7.53,4.5-11.77,5.12-1.43,.19-2.87,.31-4.33,.22l-.05-.19c3.96-2.55,8.13-4.17,12.34-6.13,9.49-4.09,15.59-12.63,17.18-22.81,2.43-14.66-3.18-29.88-9.08-42.73h0Z"/><path class="cls-47" d="M512,616.71c.4-.38,.39-3.37,.53-3.98,.86-3.72,2.73-7.18,5.14-10.12,8.64-10.53,34.23-21.48,43.37-6.08,.51,.85,.94,1.8,.88,2.79-.26,4.99-12.11,2.06-15.02,1.56-13.49-2.32-25.76,6.98-34.9,15.83Z"/><path class="cls-47" d="M475.71,618.58l-24.47-22.02s-11.42-9.9-20.14-8.66c-6.96,.99-9.6,4.14-9.41,6.96s3.58,5.65,7.53,5.84,8.72-2.04,15.81,.38c5.08,1.73,12.42,7.72,14.12,8.09s14.68,9.98,16.56,9.41Z"/><path class="cls-22" d="M668.46,736.24c-.06,.07-.39,.48-.96,1.22-3.1,3.95-13.32,17.15-26.14,35.29-3.86,5.45-7.46,11.05-11.4,16.65-11.87,16.82-26.9,33.7-61.64,46.97,0,0-24.47,10.54-63.24,12.05-38.78,1.5-63.25-7.53-63.25-7.53,0,0-26.35-6.78-49.32-30.12-5.99-6.09-12.2-13.19-18.1-20.37-10.33-12.55-19.75-25.32-25.44-33.26-3.54-4.93-5.64-8-5.63-8l9.66-1.72,28.97-5.17,10.54,6.03s.06,.42,.64,1.17c.87,1.13,2.92,3.02,7.72,5.3,2.88,1.38,6.76,2.9,11.97,4.49,8.27,2.52,16.91,3.46,25.49,4.17,8.39,.69,17.28,.78,25.47,2.9,2.8,.73,5.51,1.88,8.3,2.58s5.85,.22,8.73,.31c3.11,.09,6.22,.2,9.32,.34,3.4,.15,6.81,.28,10.2,.61,4.13,.4,7.61,.44,11.7-.3,2.77-.5,5.55-.97,8.33-1.4,2.68-.41,5.36-.89,8.05-1.18,2.56-.28,5.19,.07,7.71-.32,1.87-.29,3.54-1.29,5.3-1.93,2.05-.76,4.15-1.38,6.25-1.99,5.94-1.72,11.97-3.03,18.16-3.46,3.61-.25,6.39-.92,9.65-2.39,2.73-1.23,5.46-2.44,8.2-3.63,6.99-3.03,14.04-5.96,21.2-8.53l.21-.08c7.66-2.75,14.24-4.57,16.66-3.81,7.11,2.24,46.16-4.79,46.68-4.88Z"/><path class="cls-38" d="M668.47,736.23s-3.05,1.51-8.52,3.34c-10.67,3.58-30.55,8.35-54.83,5.36-2.47-.31-4.99-.69-7.55-1.17,0,0-37.53,4.89-49.95,2.26,0,0-27.48,10.16-47.81,1.5,0,0-29.74,7.16-48.19,1.89,0,0-21.91-.72-33.68,.79-.47,.05-.92,.12-1.35,.19-.48,.07-.94,.15-1.38,.23-.43,.08-.84,.17-1.22,.27-.19,.04-.38,.09-.55,.14-.35,.1-.68,.2-.97,.31-1.4,.52-3.5,1.2-6.1,1.94-.32,.09-.64,.18-.97,.27-.21,.06-.43,.12-.65,.18-.49,.13-.99,.27-1.5,.4l-.33,.09c-.42,.11-.84,.22-1.28,.33-.25,.07-.51,.13-.77,.2-2.31,.57-4.81,1.15-7.42,1.69-11.54,2.38-25.08,4.03-32.94,1.63-9.3-2.85-14.7-6.76-17.17-8.93-1.13-.99-1.65-1.62-1.65-1.62,0,0,6.85-5.86,17.53-14.09,2.81-2.17,5.88-4.5,9.17-6.93,25.57-18.93,63.81-43.93,88.5-44.86,0,0,12,.29,22.81,7.08,5.69,3.58,12.74,4.59,19.12,2.51,2.28-.74,4.47-1.87,6.26-3.56,7.15-6.78,23.72-13.56,48.19-6.03,19.42,5.98,51.42,20.02,73.77,33.46,3.41,2.06,6.6,4.1,9.48,6.09,3.38,2.34,6.94,4.4,10.63,6.21,1.42,.7,2.87,1.36,4.34,1.98,4.97,2.11,11.23,4.7,16.98,6.85Z"/><path class="cls-38" d="M548.16,746.12c.16,.03,.33,.06,.5,.09-.17-.02-.34-.05-.5-.08h0Z"/><path class="cls-38" d="M668.47,736.23s-3.05,1.51-8.52,3.34c-10.67,3.58-30.55,8.35-54.83,5.36-2.47-.31-4.99-.69-7.55-1.17,0,0-1.42,.19-3.8,.47l6.79-4.9-84.12-13-58.22,6.23-39.89,5.72-10.44,8.67,2.56,5.09c-1.15,.38-2.53,.8-4.08,1.24-.32,.09-.64,.18-.97,.27-.21,.06-.43,.12-.65,.18-.49,.13-.99,.27-1.5,.4l-.33,.09c-.42,.11-.84,.22-1.28,.33-.25,.07-.51,.13-.77,.2-2.31,.57-4.81,1.15-7.42,1.69-11.54,2.38-25.08,4.03-32.94,1.63-9.3-2.85-14.7-6.76-17.17-8.93-1.13-.99-1.65-1.62-1.65-1.62,0,0,6.85-5.86,17.53-14.09,2.81-2.17,5.88-4.5,9.17-6.93,25.57-18.93,63.81-43.93,88.5-44.86,0,0,12,.29,22.81,7.08,5.69,3.58,12.74,4.59,19.12,2.51,2.28-.74,4.47-1.87,6.26-3.56,7.15-6.78,23.72-13.56,48.19-6.03,19.42,5.98,51.42,20.02,73.77,33.46,3.41,2.06,6.6,4.1,9.48,6.09,3.38,2.34,6.94,4.4,10.63,6.21,1.42,.7,2.87,1.36,4.34,1.98,4.97,2.11,11.23,4.7,16.98,6.85Z"/><path class="cls-38" d="M548.13,745.45c0,.2,.01,.42,.03,.67,0,.01-.02,0-.02,0,0-.22,0-.44-.01-.67Z"/><path class="cls-45" d="M361.59,349.23c-3.84-2.31-9.51-5.27-17.53-8.45-.75-.3-1.51-.6-2.3-.9-7.12-2.73-15.95-5.59-26.8-8.35-16.08-4.1-32.56-3.03-46.71-.18-1.13,.23-2.24,.47-3.34,.72-20.56,4.64-35.41,12.63-35.41,12.63l.39,1.86c.85,4.04,3.04,7.69,6.28,10.25,1.1,.87,2.39,1.81,3.89,2.78,7.17,4.67,19.12,10.21,37.65,12.79,1.46,.21,2.96,.39,4.5,.56,0,0,3.35,.4,8.68,.61,7.42,.32,18.67,.28,30.09-1.63,.49-.08,.97-.16,1.46-.23,2.86-.45,5.72-.77,8.62-.92,.25,0,.5-.02,.76-.04,6.92-.33,17.76-.81,23.05-.81,10.01,0,15.32-.14,16.89-2.73,.69-1.1,.68-2.65,.07-4.82-1.55-5.54-5.32-10.17-10.24-13.14Z"/><path class="cls-45" d="M740.75,324.77c-3.04-.53-6.3-1.04-9.79-1.53-24.09-3.39-50.07,6.78-66.64,12.8-.49,.18-.98,.36-1.47,.55-16.12,6.19-32.78,17.72-32.78,17.72-7.25,7.92,1.96,10.38,7.84,11.14,2.37,.3,4.2,.33,4.2,.33l10.18-.57c6.06-.35,12.13-.07,18.14,.74,4.55,.61,9.04,1.07,13.29,1.41,15.01,1.24,26.91,1.06,26.91,1.06,3.33-.22,6.48-.51,9.45-.87,24.96-3.03,37.76-10.69,44.26-17.14,5.61-5.57,6.53-10.23,6.53-10.23-1.93-8.05-12.13-12.24-30.12-15.41Z"/><path class="cls-23" d="M371.76,367.19c-24.41-20.3-70.87-26.25-70.87-26.25-35.57-10.14-53.87,8.57-60.83,18.65-1.5-.97-2.79-1.91-3.89-2.78-.59-.47-1.14-.97-1.66-1.5-2.33-2.4-3.92-5.44-4.62-8.75l-.39-1.86s44.05-23.72,85.46-13.17c24.91,6.34,39.2,13.22,46.63,17.7,4.4,2.66,7.89,6.65,9.67,11.43,.22,.56,.41,1.13,.57,1.71,.61,2.17,.62,3.72-.07,4.82Z"/><path class="cls-23" d="M770.87,340.18s-.4,2.05-2.31,5.05c-.97,1.53-2.33,3.3-4.22,5.18-17.69-21.66-65.21-12.39-65.21-12.39-34.22-2.38-54.79,19.32-61.22,27.43-2.62-.34-5.9-1.01-8.09-2.36-2.73-1.68-3.77-4.39,.25-8.78,0,0,17.69-12.24,34.25-18.27,16.57-6.02,42.55-16.19,66.64-12.8,24.09,3.39,37.65,7.53,39.91,16.94Z"/><path class="cls-55" d="M371.26,360.66c-.73-.44-1.5-.9-2.31-1.37h-.03l-.02-.02c-13.6-7.92-37.63-19.67-68.01-25.19-35.26-6.41-57.19,11.31-66.38,21.23-2.33-2.4-3.92-5.44-4.62-8.75l-.39-1.86s44.05-23.72,85.46-13.17c15.16,3.86,26.39,7.92,34.53,11.52,1.55,.68,3,1.35,4.33,2,1.37,.67,2.62,1.31,3.77,1.92,.51,.27,1,.54,1.47,.8,.92,.51,1.76,1,2.53,1.46,.97,.59,1.9,1.24,2.78,1.96l.57,.48c.34,.28,.66,.59,.98,.9,.23,.22,.45,.44,.66,.67,.24,.25,.48,.52,.71,.78,.23,.26,.44,.52,.66,.79,.81,1.01,1.52,2.1,2.13,3.25,.15,.28,.3,.56,.43,.85,.12,.24,.24,.49,.35,.74,.04,.08,.07,.16,.1,.24,.06,.14,.11,.29,.17,.43,.04,.11,.09,.23,.13,.34Z"/><path class="cls-55" d="M371.26,360.66c-.73-.44-1.5-.9-2.31-1.37l2.18,1.03c.04,.11,.09,.23,.13,.34Z"/><path class="cls-50" d="M344.06,340.78c-1.57,13.54-9.95,25.02-21.62,30.91-.49,.07-.97,.15-1.46,.23-11.42,1.91-22.67,1.95-30.09,1.63-15.28-5.56-26.19-20.22-26.19-37.41,0-1.38,.07-2.73,.21-4.07,1.1-.25,2.21-.49,3.34-.72,14.15-2.85,30.63-3.92,46.71,.18,10.85,2.76,19.68,5.62,26.8,8.35,.79,.3,1.55,.6,2.3,.9Z"/><path class="cls-62" d="M279.43,333.95c2.38-1.64,5.2-2.87,8.09-3.19,2.09-.23,6.01,.04,7.06,2.3,.56,1.2,.07,2.72,.1,3.99,.03,1.2,.2,2.46,.46,3.64,.53,2.34,1.63,4.55,3.57,6.03,5.36,4.09,12.56-.01,14.4-1.98,2.57-2.76,3.77-5.56,4.59-9.19,.07-.31,.15-.64,.36-.87,.25-.28,.65-.38,1.02-.44,3.42-.57,7.27,.87,10.37,2.19,1.81,.77,4.81,1.6,5.71,3.56,.21,.45,.28,.94,.34,1.43,.73,6.26-2.2,12.1-6.13,16.78s-8.74,9.42-14.84,10.27c-7.06,.99-16.66,1.27-24.14-1.98-3.3-1.43-6.1-3.93-8.59-6.47-2.22-2.27-5.03-4.95-6.3-7.89-2.27-5.27-2.18-12.69,2.31-16.89,.47-.44,1.02-.88,1.63-1.3Z"/><circle class="cls-47" cx="305.74" cy="337.62" r="12.29"/><path class="cls-55" d="M770.87,340.18s-.4,2.05-2.31,5.05c-6.03-6.38-24.61-21.18-63.95-15.96-41.16,5.45-67.09,26.69-74.79,33.82-2.18-1.34-3.43-3.59-2.13-6.45,.67-1.47,1.9-2.91,3.25-3.81,4.6-3.05,19.68-11.81,33.38-16.79,16.57-6.02,42.55-16.19,66.64-12.8,24.09,3.39,37.65,7.53,39.91,16.94Z"/><path class="cls-47" d="M389.29,359.91c-22.16-20.04-77.44-59.74-155.13-44.71-8.95,1.73-18.13,2.11-27.18,1.07-16.8-1.93-41.29-8.24-60.48-27.6-1.14-1.15-3.1-.16-2.84,1.44,3.12,19.08,17.62,82.63,71.2,68.07,.65-.18,1.34,.04,1.76,.57,3.79,4.74,24.38,27.04,73.88,24.35,55.34-3.01,100.18-15.22,119,1.57l-3.2-5.75s0,0-.03-.03c-4.44-7.05-10.8-13.38-16.98-18.97Zm-17.53,7.28c-1.57,2.59-6.88,2.73-16.89,2.73-5.29,0-16.13,.48-23.05,.81-.26,.02-.51,.03-.76,.04-2.9,.15-5.76,.47-8.62,.92-.49,.07-.97,.15-1.46,.23-11.42,1.91-22.67,1.95-30.09,1.63-5.33-.21-8.68-.61-8.68-.61-1.54-.17-3.04-.35-4.5-.56-18.53-2.58-30.48-8.12-37.65-12.79-1.12-.72-2.12-1.43-3.02-2.11-3.75-2.83-6.32-6.94-7.28-11.53h0c-.16-.74,.2-1.5,.88-1.84,3.85-1.93,17.06-8.16,34.26-12.04,1.1-.25,2.21-.49,3.34-.72,14.15-2.85,30.63-3.92,46.71,.18,10.85,2.76,19.68,5.62,26.8,8.35,.79,.3,1.55,.6,2.3,.9,8.02,3.18,13.69,6.14,17.53,8.45,4.92,2.97,8.69,7.6,10.24,13.14,.61,2.17,.62,3.72-.07,4.82Z"/><path class="cls-50" d="M741.5,332.47c0,15.28-8.7,28.54-21.42,35.08-2.97,.36-6.12,.65-9.45,.87,0,0-11.9,.18-26.91-1.06-11.38-5.99-19.48-17.38-20.87-30.77,.49-.19,.98-.37,1.47-.55,16.57-6.02,42.55-16.19,66.64-12.8,3.49,.49,6.75,1,9.79,1.53,.49,2.49,.75,5.07,.75,7.7Z"/><path class="cls-47" d="M769.34,304.29c-7.17-1.69-20.29-2.76-27.65-2.51-90.2,3.04-146.07,73.23-146.07,73.23l-6.62,7.65c12.65-5.92,23.94-15.56,95.09-7.65,71.15,7.91,97.91-31.21,97.91-31.21,56.47,7.91,75.26-65.17,75.26-65.17-19.67,40.83-73.57,29.03-87.93,25.66Zm-4.81,46.31c-6.5,6.45-19.3,14.11-44.26,17.14-2.97,.36-6.12,.65-9.45,.87,0,0-11.9,.18-26.91-1.06-4.25-.34-8.74-.8-13.29-1.41-6.01-.81-12.08-1.09-18.14-.74l-10.18,.57s-1.83-.03-4.2-.33c-5.88-.76-15.09-3.22-7.84-11.14,0,0,16.66-11.53,32.78-17.72,.49-.19,.98-.37,1.47-.55,16.57-6.02,42.55-16.19,66.64-12.8,3.49,.49,6.75,1,9.79,1.53,17.99,3.17,28.19,7.36,30.12,15.41,0,0-.92,4.66-6.53,10.23Z"/><path class="cls-5" d="M845.01,756.83c4.4-8.64,9.77-19.4,16.28-32.73,0-.15,0-.3-.01-.45,0-.11-.01-.22-.01-.33-.01-.86-.05-1.74-.06-2.65,0-.15-.01-.31-.01-.46-.03-.64-.04-1.29-.05-1.95l-.04-1.32s-.01-.05-.01-.08h0c0-.16,0-.32-.01-.47,0-.49-.02-.99-.04-1.49,0-.68-.03-1.37-.04-2.07-.05-1.31-.09-2.64-.11-4h0c-.02-.6-.05-1.2-.06-1.79-.01-.79-.04-1.58-.07-2.39-.01-.71-.04-1.43-.06-2.15v-.37c-.03-.56-.05-1.13-.06-1.7v-.35c-.05-1.03-.08-2.06-.12-3.11-.04-1.17-.07-2.35-.11-3.54-.02-.6-.03-1.2-.06-1.8,0-.11,0-.22-.01-.34-.02-1.09-.07-2.19-.11-3.3v-.04c-.03-1.13-.07-2.26-.1-3.4-.06-1.71-.12-3.44-.18-5.18-.24-6.27-.49-12.75-.76-19.33-.41,.47,.27-3.29-.17-2.82-1.63-41.92-5.42-85.93-9.65-111.33-7.96-47.72,14.46-184.01,2.74-248.15-.77-4.19-1.67-8.06-2.74-11.59-.04-.13-.09-.27-.12-.4-.42-1.36-.8-2.79-1.19-4.3-.35-1.3-.67-2.65-.98-4.06-3.87-16.77-6.82-40.78-9.07-67.33-1.09-12.73-2-26.04-2.79-39.41h0c-1.14-19.55-.72-37.48-1.36-55.66-.07-1.91-8.74-18.24-8.8-20.11C794.58,53.42,783.39,26.62,773.02,.02c0-.01-.01-.01-.01-.02h-51.8c46.75,61.02,77.79,87,92.49,126.08,4.58,12.18-1.66,147.03,28.01,221.78,0,0-28.55,82.47-14.44,225.62,3.27,33.17,5.51,58.62,7.05,78.18-1.98,7.64-4.22,17.16-6.78,28.93-8.08,37.13-77.42,122.33-77.42,122.33,0,0-17.38,40.75-79.02,113.41-61.64,72.67-140.09,80-152.87,48,0,0-6.05,28-67.74,11.34-61.7-16.67-151.7-127.08-151.7-127.08,0,0-13.58-24.57-35.78-47.19-30.31-30.87-53.66-67.85-68.23-108.58-9.67-27.01-21.19-57.13-33.08-83.51-2.67-5.91-4.85-12.02-6.55-18.28-15.42-56.48-45.29-168.19-46.76-190.41-2-30,6.54-109.77,6.54-109.77,0,0,12.49-62.99,49.23-108.48C187.16,153.89,248.43,63.56,291.03,0h-125.71l-13.93,5.62-55.74,137.68-.06,.15-3.43,8.45-5.87,38.13h0l-2.37,15.42-7.89,51.31-8.46,87.53,2.82,5.22,.04,.08,2.47,4.53v.03l.02,.02,.04,.08,20.01,36.91s.31,1.45,.88,4.08c.01,.05,.02,.11,.03,.16,.57,2.61,1.38,6.34,2.39,10.93,.88,4.07,1.93,8.81,3.07,14.03,.01,.03,.01,.05,.02,.08,.02,0,.02,.02,.02,.03,.29,1.37,.61,2.77,.92,4.2,.02,.02,.02,.04,.02,.06,7.89,35.85,20.13,90.37,25.97,111.56,.78,2.78,1.67,6.06,2.66,9.74,.64,2.39,1.33,4.96,2.06,7.65-.08-.09-.15-.18-.22-.27,10.7,39.59,32.93,124.93,32.93,124.93,0,0,.67,2.39,1.94,6.56h0c2.52,8.25,7.46,23.44,14.43,40.79h0s.01,.03,.01,.04c9.06,22.49,21.55,48.62,36.7,68,32.75,41.89,71.16,79.72,71.16,79.72l46.2,42.84,15.92,14.76s.56,.57,1.62,1.6c9.73,9.57,61.4,58.92,96.07,65.04,12.16,2.14,28.17,2.93,44.38,3h.17c1.85,.01,3.71,.01,5.58,0,2.07-.01,4.15-.03,6.22-.06,.97-.01,1.94-.03,2.91-.05,1.42-.03,2.83-.06,4.23-.09h.03c27.79-.69,51.67-2.8,51.67-2.8,0,0,45.75-3.95,85.27-38.4,39.54-34.45,98.84-89.22,98.84-89.22l61.5-67.02,20.38-22.21c-.25,.49-.53,1.07-.8,1.7l16.86-25.71Z"/><path class="cls-60" d="M669.91,342.14c-.17-1.22-.13-2.46,.22-3.7,.76-2.71,3.82-4.4,6.41-5.09,2.32-.62,5-.29,6.81,1.29,1.24,1.09,1.96,2.63,2.87,4.01,3.67,5.58,11.28,8.46,17.53,6.09,3.62-1.37,6.55-4.3,8.27-7.77s2.31-7.43,2.07-11.29c-.02-.31-.03-.66,.16-.9,.18-.22,.48-.28,.77-.32,3.66-.56,7.52,.12,10.68,2.05s5.54,5.15,6.3,8.77c1.07,5.1-1.06,10.33-3.8,14.76-4.33,7.01-10.76,13.26-18.82,14.95-8.13,1.7-16.63-.33-23.72-4.45-6.4-3.72-14.63-10.56-15.75-18.38Z"/><circle class="cls-47" cx="698.58" cy="332.28" r="12.29"/><ellipse class="cls-12" cx="697.61" cy="329.27" rx="5.49" ry="4.45"/><ellipse class="cls-19" cx="303.88" cy="334.08" rx="5.62" ry="4.6"/><path class="cls-44" d="M647.15,727.4l-37.41,7.32-18.07-19.62s-41.04-30.07-66.26-10.32c-25.23,19.75-59.86,2.84-59.86,2.84-31.25-12.8-74.65,21.83-74.65,21.83l-10.06,6.78-19.2,.94-2.42-3.74c2.81-2.17,5.88-4.5,9.17-6.93,25.57-18.93,63.81-43.93,88.5-44.86,0,0,12,.29,22.81,7.08,5.69,3.58,12.74,4.59,19.12,2.51,2.28-.74,4.47-1.87,6.26-3.56,7.15-6.78,23.72-13.56,48.19-6.03,19.42,5.98,51.42,20.02,73.77,33.46,3.41,2.06,6.6,4.1,9.48,6.09,3.38,2.34,6.94,4.4,10.63,6.21Z"/><path class="cls-22" d="M669.31,736.37s-.69,.43-1.81,1.09c-2.79,1.65-8.25,4.73-12.16,6.04-10.67,3.58-25.94,4.42-50.22,1.43-2.47-.31-4.99-.69-7.55-1.17,0,0-37.53,4.89-49.95,2.26,0,0-27.48,10.16-47.81,1.5,0,0-29.74,7.16-48.19,1.89,0,0-21.91-.72-33.68,.79-.47,.05-.92,.12-1.35,.19-.48,.07-.94,.15-1.38,.23-.43,.08-.84,.17-1.22,.27-.19,.04-.38,.09-.55,.14-.35,.1-.68,.2-.97,.31-1.4,.52-3.5,1.2-6.1,1.94-.32,.09-.64,.18-.97,.27-.21,.06-.43,.12-.65,.18-.49,.13-.99,.27-1.5,.4l-.33,.09c-.42,.11-.84,.22-1.28,.33-.25,.07-.51,.13-.77,.2-2.31,.57-4.81,1.15-7.42,1.69-8.07,1.67-17.13,2.97-24.52,2.78-.7-.01-1.39-.05-2.06-.1-.38-.02-.75-.05-1.11-.08-.37-.04-.74-.08-1.1-.12-.28-.04-.56-.07-.83-.12-1.19-.18-2.3-.42-3.32-.73-4.74-1.45-8.47-3.18-11.31-4.81-2.74-1.58-4.64-3.06-5.86-4.12h-.01c-1.12-.99-1.64-1.62-1.64-1.62,0,0,1.41-1.21,3.96-3.3,4.53-3.73,12.65-10.25,22.74-17.72,7.16,.23,14.32,2.39,19.98,8.22,0,0,4.14,4.9,16.19,2.64s18.07-8.28,28.24-3.01c10.16,5.27,13.55-2.64,18.44-.38,4.9,2.26,21.46,5.15,34.64-1.75,13.17-6.91,24.76,6.33,26.12,5.74,1.36-.6,6.25,2.79,19.43-3.99,13.18-6.78,14.68,4.14,21.46,2.64,6.78-1.51,15.06-9.21,27.48-4.23,12.43,4.98,21.84,3.1,29.37,2.34,5.95-.59,9.55-13.89,17.3-19.62,3.41,2.06,6.6,4.1,9.48,6.09,4.69,3.25,9.72,5.96,14.97,8.19,1.6,.68,3.42,1.42,5.34,2.18,1.8,.72,3.69,1.46,5.58,2.19,1.75,.67,3.5,1.34,5.16,1.97,.45,.17,1.01,.38,1.74,.65Z"/><path class="cls-65" d="M473.08,695.57s.56,9.04,12.99,9.04,25.69-.56,31.62-7.06-3.45-10.31-7.62-9.46-6.49,6.64-16.09,7.2c-7.08,.42-12.77-2.39-15.28-3.89-1.35-.81-3.08-.87-4.39,0-1.07,.7-1.86,1.96-1.22,4.18Z"/><path class="cls-36" d="M483.98,733.13c-12.83,5.72-28.07,2.99-32.74,.84-4.89-2.26-8.28,5.65-18.44,.38-10.17-5.27-16.19,.75-28.24,3.01-4.15,.78-7.37,.71-9.8,.28-1.12-3.55-.29-8.07,7.92-11.57,0,0,54.21-28.24,75.67-3.39,3.87,4.48,5.52,7.88,5.63,10.45Z"/><path class="cls-36" d="M586.72,734.43c-2.02-.5-4.14-1.16-6.35-2.05-12.42-4.98-20.7,2.72-27.48,4.23-6.78,1.5-8.28-9.42-21.46-2.64-7.16,3.68-11.88,4.37-14.91,4.31-.39-7.12,.01-26.2,15.29-28.03,18.82-2.26,39.9-.99,47.06,8.54,5.1,6.8,7.12,12.78,7.85,15.64Z"/><path class="cls-26" d="M629.96,789.4c-11.87,16.82-26.9,33.7-61.64,46.97,0,0-24.47,10.54-63.24,12.05-38.78,1.5-63.25-7.53-63.25-7.53,0,0-26.35-6.78-49.32-30.12-5.99-6.09-12.2-13.19-18.1-20.37,7.67,1.74,15.48,5.31,21.49,12.09,17.7,19.95,45.55,30.49,45.55,30.49,41.42,12.43,65.89,9.04,107.3,0,41.41-9.03,57.97-28.99,66.63-36.51,4.47-3.88,10.14-5.97,14.58-7.07Z"/><path class="cls-64" d="M450.88,793.92c1.02,1.32,1.94,2.76,3.28,3.76s3.26,1.45,4.67,.56c2.68-1.69,1.79-6.73,4.75-7.87,2.36-.91,4.52,1.64,5.77,3.84l3.65-4.08c1.42,.15,1.78,2.4,3.18,2.68,1.66,.34,2.9-2.38,4.5-1.83,.45,.15,.77,.55,1.2,.75,1.05,.49,2.21-.26,3.27-.72s2.74-.3,2.83,.86l4.39-1.6c.48,3.51,1.6,7.76,5.04,8.6,2.54,.62,5.08-1.07,6.79-3.06,.71-.83,1.39-1.76,2.39-2.21,2.13-.96,4.88,1.42,4.24,3.67,3.11,.31,6.33-.82,8.57-3.01,2.82,2.63,7.48,1.51,10.72-.59,1.4-.91,2.78-2,4.43-2.26s3.65,.73,3.74,2.39c1.29-1.06,2.66-2.12,4.29-2.49s3.58,.16,4.37,1.63c.3-1.66,2.57-2.33,4.05-1.52s2.19,2.55,2.42,4.22c.32,2.35-.1,4.74-.63,7.06-.38,1.67-.84,3.38-1.92,4.7s-2.96,2.14-4.55,1.51c-1.48-.59-2.26-2.2-3.54-3.16-1.97-1.48-5.13-.96-6.54,1.06l-1.68-1.59c-2.63,1.13-5.51,1.66-8.36,1.53-1.69-.07-3.74-.7-4.07-2.36l-5.14,6.62c-3.98-.97-7.54-3.57-9.7-7.06-2.66,1.86-5.51,3.43-8.5,4.69-.89-1.55-3.16-1.8-4.77-1.01s-2.7,2.32-3.72,3.79c-2.33-1.68-4.46-3.64-6.31-5.84-1.12,1.17-1.69,2.78-2.77,3.99s-3.13,1.89-4.27,.74c.09,.95-1.01,1.63-1.97,1.59s-1.82-.53-2.75-.78c-3.11-.85-6.64,1.07-9.57-.29-.9-.42-1.64-1.12-2.47-1.68-2.39-1.6-5.59-1.89-8.26-.84-1.25,.49-2.68,1.26-3.84,.58-.58-.33-.92-.95-1.36-1.45-1.06-1.2-2.69-1.7-4.13-2.41s-2.89-1.9-2.95-3.5c-.08-2.21,1.4-3.78,.97-6.14-.32-1.75-1.43-2.81,.06-4.33,3.17-3.23,8.16,.23,10.2,2.86Z"/><path class="cls-35" d="M547.69,763.02c-3.49,11.37-12.97,28.19-38.43,26.74-30.93-1.76-41.81-17.46-44.83-23.37,3.35,.65,5.86,1.47,7.14,2.59,0,0,26.35,.38,35.01,1.89,0,0,22.59-4.52,29.37-3.77,0,0,4.79-2.07,11.74-4.08Z"/><path class="cls-44" d="M614.11,788.11c-7.83,6.36-44.5,31.51-63.46,44.45-.63,.14-1.26,.28-1.9,.42-41.41,9.04-65.88,12.43-107.3,0,0,0-19.12-7.24-35.74-21.07,0,0,13.82-3.85,36.5-7.08,.13,.07,.27,.14,.4,.21,1.44,.7,3.06,1.21,4.13,2.41,.44,.5,.78,1.11,1.35,1.45,1.17,.68,2.59-.09,3.85-.59,2.67-1.05,5.86-.76,8.26,.84,.83,.55,1.57,1.26,2.47,1.68,2.93,1.37,6.45-.55,9.57,.29,.92,.25,1.79,.74,2.75,.78,.95,.05,2.05-.63,1.96-1.58,1.14,1.15,3.19,.46,4.27-.75,1.08-1.21,1.65-2.81,2.78-3.98,1.85,2.19,3.98,4.16,6.31,5.84,1.03-1.47,2.12-3,3.72-3.79,1.61-.79,3.88-.54,4.77,1.01,2.99-1.26,5.84-2.83,8.5-4.69,2.15,3.49,5.71,6.09,9.69,7.06,1.72-2.21,3.43-4.42,5.14-6.62,.34,1.66,2.38,2.28,4.07,2.35,2.86,.13,5.74-.4,8.37-1.53,.55,.53,1.11,1.06,1.67,1.59,1.41-2.02,4.57-2.53,6.54-1.06,1.28,.95,2.06,2.56,3.54,3.16,1.59,.64,3.46-.18,4.55-1.51,1.08-1.32,1.54-3.03,1.91-4.7,.53-2.32,.96-4.71,.63-7.06-.23-1.67-.94-3.41-2.42-4.22-1.47-.8-3.75-.13-4.05,1.53-.78-1.48-2.73-2-4.36-1.63-1.63,.36-3,1.42-4.29,2.49-.09-1.67-2.09-2.66-3.74-2.39-1.65,.26-3.02,1.35-4.43,2.26-1.91,1.23-4.32,2.13-6.55,2.12,2.57-2.98,8.2-6.41,20.54-7.69,5.09-.53,55.33-13.55,64.45-21.55,9.11-8,16.22,12.88,5.55,21.55Z"/><path class="cls-33" d="M611.64,810.78c-12.01,15.67-37.75,38.68-87.53,44.33-49.88,5.66-75.91-6.66-88.1-16.13,3.65,1.35,5.82,1.91,5.82,1.91,0,0,24.47,9.03,63.25,7.53,38.77-1.51,63.24-12.05,63.24-12.05,19.84-7.58,33.25-16.33,43.32-25.59Z"/><path class="cls-35" d="M669.31,736.37s-.69,.43-1.81,1.09c-2.79,1.65-8.25,4.73-12.16,6.04-10.67,3.58-25.94,4.42-50.22,1.43-2.47-.31-4.99-.69-7.55-1.17,0,0-37.53,4.89-49.95,2.26,0,0-27.48,10.16-47.81,1.5,0,0-29.74,7.16-48.19,1.89,0,0-21.91-.72-33.68,.79-.47,.05-.92,.12-1.35,.19-.48,.07-.94,.15-1.38,.23-.43,.08-.84,.17-1.22,.27-.19,.04-.38,.09-.55,.14-.35,.1-.68,.2-.97,.31-1.4,.52-3.5,1.2-6.1,1.94-.32,.09-.64,.18-.97,.27-.21,.06-.43,.12-.65,.18-.49,.13-.99,.27-1.5,.4l-.33,.09c-.42,.11-.84,.22-1.28,.33-.25,.07-.51,.13-.77,.2-2.31,.57-4.81,1.15-7.42,1.69-8.07,1.67-17.13,2.97-24.52,2.78-.7-.02-1.39-.05-2.06-.1-.38-.02-.75-.05-1.11-.08-.37-.04-.74-.08-1.1-.12-.28-.04-.56-.07-.83-.12-.09-.01-.19-.03-.28-.04-5.65-.2-10.52-.78-14.58-1.62-3.54-4.93-5.64-8-5.64-8-1.12-.99-1.64-1.62-1.64-1.62,0,0,1.41-1.21,3.96-3.3,1.66,.34,3.29,.95,4.79,1.81,.77,.44,1.63,.9,2.56,1.39,3.46,1.78,7.93,3.75,12.77,5.04,9.56-.61,19.68-1.55,27.38-3.01,.04-.01,.08-.01,.12-.02,1.23-.3,2.41-.55,3.54-.75,1.5-.36,2.87-.75,4.05-1.16,16.12-5.64,37.58-6.57,37.58-6.57,0,0,22.21,.98,27.86,2.46,5.65,1.48,25.22-6.43,26.73-6.24,1.51,.19,8.28,.6,14.68,3.78,6.4,3.19,22.21,0,22.21,0,0,0,20.71-2.43,27.86,0,7.16,2.43,14.44,.05,16.94-1.33,1.7-.94,16.09-3.58,19.74,.59,2.2,2.51,17.72-.51,26.66-2.5,4.16-.93,8.4-1.37,12.66-1.33,7.76,.05,20.8-.25,28.63-2.63,3.29,1.32,3.21,1.26,5.16,1.97,.45,.17,1.01,.38,1.74,.65Z"/><path class="cls-27" d="M1024,.02V1024.02h-125.25c-21.43-21.68-35.68-45.98-44.79-70.96-.32-.89-.64-1.79-.96-2.68-.29-.84-.58-1.67-.87-2.51-.04-.13-.08-.26-.13-.38l-.78-2.43s-.03-.08-.04-.12c-.23-.72-.45-1.43-.67-2.15-.33-1.06-.64-2.13-.96-3.19-.21-.7-.41-1.4-.6-2.11-.16-.55-.31-1.11-.46-1.67-.21-.76-.41-1.52-.61-2.29-.2-.75-.39-1.51-.57-2.26-.15-.58-.29-1.15-.43-1.73-.28-1.16-.54-2.31-.81-3.47-.21-.9-.4-1.79-.59-2.69-.15-.68-.29-1.36-.42-2.04-.11-.55-.23-1.1-.33-1.65-.03-.13-.05-.27-.08-.4-.03-.16-.06-.31-.09-.47-.06-.28-.11-.56-.16-.85-.11-.56-.22-1.13-.31-1.7-.1-.47-.18-.95-.26-1.42-.09-.51-.18-1.03-.27-1.55-.17-1.02-.33-2.05-.49-3.07-.16-1.02-.32-2.03-.46-3.05-.08-.55-.16-1.11-.23-1.66-.07-.54-.14-1.07-.21-1.59-.12-.89-.23-1.77-.33-2.65-.09-.72-.17-1.44-.25-2.15-.07-.6-.13-1.2-.2-1.8-.22-2.2-.43-4.38-.6-6.56-.13-1.65-.25-3.29-.35-4.94-.01-.09-.01-.18-.02-.27-.1-1.67-.19-3.33-.26-4.99-.04-.88-.07-1.75-.1-2.62-.02-.58-.04-1.15-.05-1.73-.12-4.36-.15-8.67-.09-12.93,.02-1.39,.05-2.77,.08-4.15,.08-2.69,.18-5.36,.32-8.01,.01-.21,.02-.42,.03-.64,0-.03,0-.07,.01-.1,.03-.61,.06-1.21,.1-1.82,.03-.6,.07-1.21,.11-1.81,.18-2.71,.38-5.38,.62-8.03,.03-.37,.07-.74,.1-1.1,.01-.15,.23-2.37,.24-2.53,0-.1,.02-.21,.03-.31,.21-2.13,.44-4.24,.69-6.32h0c.01-.07,.01-.12,.02-.18s.01-.11,.02-.17c.01-.06,.01-.12,.02-.18,.28-2.29,.58-4.56,.89-6.77,.03-.22,.06-.43,.09-.65,.07-.55,.15-1.09,.24-1.63,.04-.36,.09-.71,.15-1.07,.02-.14,.04-.27,.06-.41,.02-.14,.04-.29,.07-.43,.14-.92,.28-1.84,.42-2.75,.18-1.14,.36-2.27,.55-3.39,.34-2.03,.69-4.02,1.06-5.98,.02-.12,.05-.24,.07-.36,.25-1.38,.52-2.74,.78-4.09,.38-1.95,.77-3.86,1.18-5.72,.29-1.39,.59-2.75,.89-4.09,.34-1.5,.68-2.97,1.02-4.4,.38-1.62,.76-3.19,1.16-4.72,.43-1.74,.87-3.42,1.3-5.04,.07-.31,.16-.61,.24-.91,.24-.92,.49-1.83,.73-2.71,.08-.3,.16-.59,.24-.88,.13-.47,.26-.93,.38-1.39,.17-.58,.34-1.16,.49-1.72,.06-.17,.1-.34,.15-.51,.11-.39,.22-.77,.33-1.15,.17-.55,.32-1.08,.48-1.61,.12-.4,.23-.78,.35-1.17,.12-.38,.23-.76,.35-1.14,.22-.75,.44-1.47,.66-2.17,.15-.47,.29-.93,.43-1.37,.15-.45,.28-.89,.42-1.31,.28-.86,.54-1.67,.81-2.44,.25-.76,.49-1.49,.73-2.17,.34-1.03,.67-1.95,.96-2.77,.1-.27,.19-.53,.28-.78,.09-.25,.18-.49,.26-.71,.08-.23,.16-.45,.24-.65,.07-.2,.14-.39,.21-.57,.17-.47,.32-.85,.43-1.15,.05-.14,.1-.26,.13-.36,.11-.26,.16-.39,.16-.39,0,0-.04-2.51-.13-6.98,0-.35-.01-.7-.02-1.07,0-.19-.01-.39-.01-.59-.01-.24-.01-.49-.02-.74-.01-.46-.02-.93-.03-1.42s-.02-.99-.03-1.51c-.05-2.59-.12-5.54-.2-8.79,0-.17,0-.33-.01-.49,0-.17-.01-.33-.01-.5,0-.22,0-.44-.01-.67,0-.11-.01-.22-.01-.33-.02-.86-.05-1.74-.07-2.65,0-.15-.01-.31-.01-.46-.02-.64-.03-1.29-.05-1.95-.01-.44-.02-.88-.03-1.32,0-.03-.01-.05-.01-.08h0c0-.16,0-.32-.01-.47-.01-.49-.03-.99-.04-1.49-.01-.68-.03-1.37-.05-2.07-.04-1.31-.08-2.64-.11-4h0c-.02-.6-.04-1.2-.05-1.79-.02-.79-.04-1.58-.07-2.39-.02-.71-.04-1.43-.06-2.15-.01-.12-.01-.25-.01-.37-.02-.56-.04-1.13-.05-1.7-.01-.12-.01-.23-.01-.35-.04-1.03-.07-2.06-.1-3.11-.04-1.17-.08-2.35-.11-3.54-.02-.6-.04-1.2-.06-1.8,0-.11,0-.22-.01-.34-.03-1.09-.07-2.19-.11-3.3v-.04c-.03-1.13-.07-2.26-.11-3.4-.06-1.71-.12-3.44-.18-5.18-1.59-44.08-4.37-98.53-9-126.08-8.52-50.83-1.61-125.93,1.09-214.59,0-.14-1.17-45.41-1.21-45.54-.41-1.36-.81-2.79-1.2-4.3-4.37-16.82-7.65-42.61-10.1-71.39-1.1-12.73-2.02-26.04-2.81-39.41h0c-.52-8.71-.97-17.43-1.38-26.04-1.08-22.9-8.04-45.15-20.35-64.5C792.7,52.56,778.99,20.97,771.25,.02h252.75Z"/><path class="cls-49" d="M852.07,297.74c-.37-1.45-.76-2.84-1.17-4.19-.04-.13-.08-.27-.12-.4-.41-1.36-.8-2.79-1.19-4.3-.9-3.46-1.75-7.3-2.56-11.46,.32,1.41,.64,2.76,.98,4.06,.39,1.51,.78,2.94,1.19,4.3,.04,.13,.08,.27,.12,.4,1.07,3.53,1.98,7.4,2.75,11.59Z"/><path class="cls-15" d="M461.44,648.11s3.29,16,22.54,11.56,26.13-12,28.02-16.44,28.01-.68,24.96,17.22-19.91,13-24.38,7.22c0,0-7.88-2.75-10.4,5.29s-6.53,12.48-13.86,8.93-7.23-12.44-12.61-8.89-6.08,6.03-11.28,6.35-15.87-8.45-13.21-15.4,.44-16.73,10.22-15.84Z"/><path class="cls-17" d="M484.02,526.83c1.59,0,3.21,.07,4.7,.62,4.91,1.82,6.61,7.87,10.48,11.4,2.11,1.93,4.82,3.04,7.4,4.27s5.19,2.71,6.78,5.08,1.85,5.87-.13,7.93c-1.14,1.18-2.81,1.71-4.45,1.9-4.94,.56-9.78-1.59-14.75-1.85-7.55-.39-14.63,3.6-22.13,4.5-.87,.1-1.75,.17-2.61,0-2.65-.49-4.5-2.94-5.47-5.45-2.6-6.77-.8-16.21,2.49-22.55,3.08-5.94,11.81-5.85,17.69-5.86Z"/><path class="cls-15" d="M593.75,391.22s24.14-6.02,43.25,11.43,53.78,28.12,80.22,22.34-9.62,25.78-9.62,25.78c0,0-40.99,20.89-63.8,2.22s-33.01-31.11-42.35-31.11-11.85-15.56-7.71-30.67Z"/><path class="cls-15" d="M405.45,392.56s-8.9-14.02-46.23,10.1-67.04,21.01-67.04,21.01c0,0-.96,20,31.93,24.89s61.33-18.44,62.67-21.22,6.15-24.34,19.52-32"/><path class="cls-15" d="M483.98,303.67s31.9-5.33,32.46,8-11.94,20.32-11.36,31.16-33.41,5.41-35.41-5.21,14.31-33.95,14.31-33.95Z"/><path class="cls-16" d="M591.82,190.03s-102.82,33.64-210.6-18.36C273.44,119.67,359.43,0,359.43,0h230.71c-.76,33.14,2.98,80.12,24.64,118.33,37.78,66.67-22.96,71.7-22.96,71.7Z"/><path class="cls-18" d="M419.67,0s8.05,22.78,26.25,49.44-14.79,53.33-14.79,53.33c0,0-47.44,15.18-30.56,36.92s63.64,35.08,71.59,40.41,57.33,21.33,70.64-5.33,3.74-93.56,3.89-97.47c.31-8.14,15.21-55.87,15.21-55.87l9.26-21.44h-151.48Z"/><path class="cls-27" d="M259.38,0c-19.39,30.86-68.77,107.14-114.41,159.05-1.38,18.78-4.91,44.39-13.09,76.19h0c-.44,1.72-.88,3.43-1.36,5.18-3.67,13.72-8.19,28.54-13.76,44.42-4.55,13-19.97,65.09-16.48,128.87,.28,5.24,.7,10.57,1.26,15.95,.07,.79,.16,1.59,.24,2.39,.01,.02,.01,.04,.01,.06,5.87,52.69,5.38,162.93-8.73,226.55-3.98,17.91-36.07,96.12-38.73,106.1-15.56,58.42,14.24,111.53,47.46,153.32,22.94,28.85,1.1,78.17-14.62,105.93H0V0H259.38Z"/><path class="cls-37" d="M387.41,367.07c-.06,.13-.13,.24-.21,.36,0,.02-.02,.04-.04,.05-.07,.1-.16,.2-.25,.29-.2,.2-.45,.39-.73,.57l-.02,.02h0c-2.02,1.25-5.95,1.86-10.37,2.11-9.37,.53-20.91-.55-20.91-.55,10.01,0,15.32-.14,16.89-2.73,.69-1.1,.68-2.65,.07-4.82-.16-.58-.35-1.15-.57-1.71-.03-.11-.07-.22-.11-.33-.06-.15-.12-.3-.19-.44-.03-.08-.06-.16-.1-.24-.11-.25-.23-.5-.35-.74-.13-.29-.27-.57-.43-.85-.61-1.15-1.32-2.24-2.13-3.25-.22-.27-.43-.53-.66-.79-.23-.26-.47-.53-.71-.78-.21-.23-.43-.45-.66-.67-.32-.31-.64-.62-.98-.9l-.57-.48c-.88-.72-1.81-1.37-2.78-1.96-.77-.46-1.61-.95-2.53-1.46-.47-.26-.96-.53-1.47-.8-1.15-.61-2.4-1.25-3.77-1.92,.32,.13,1.45,.6,3.12,1.32,.29,.13,.59,.26,.9,.4,.18,.08,.36,.16,.54,.23,.72,.32,1.5,.67,2.32,1.05,.56,.25,1.13,.51,1.73,.79,.88,.41,1.81,.85,2.77,1.31,.02,.02,.04,.03,.07,.03,.28,.14,.57,.28,.86,.42,.86,.41,1.74,.85,2.62,1.3,.01,.01,.02,.01,.03,.01,8.33,4.2,17.29,9.52,18.66,13.54,.21,.61,.19,1.14-.03,1.62Z"/><path class="cls-34" d="M387.44,367.09c-.06,.12-.14,.24-.24,.34,0,.02-.02,.04-.04,.05-.07,.1-.16,.2-.25,.29-.2,.2-.45,.39-.73,.57l-.02,.02h0c-2.02,1.25-5.95,1.86-10.37,2.11l-4.02-3.28c.69-1.1,.68-2.65,.07-4.82-.16-.58-.35-1.15-.57-1.71-.03-.11-.07-.22-.11-.33h-.02c-.06-.15-.11-.3-.17-.44-.03-.08-.06-.16-.1-.24-.11-.25-.23-.5-.35-.74-.13-.29-.27-.57-.43-.85-.61-1.15-1.32-2.24-2.13-3.25l11.38,7.61,8.08,4.65,.03,.02Z"/><path class="cls-21" d="M387.44,367.09c-.06,.12-.14,.24-.24,.34,0,.02-.02,.04-.04,.05-.3,.34-.7,.58-.98,.86l-.02,.02h0l-15-8.03h-.02c-.06-.15-.11-.3-.17-.44-.03-.08-.06-.16-.1-.24-.11-.25-.23-.5-.35-.74-.13-.29-.27-.57-.43-.85-.61-1.15-1.32-2.24-2.13-3.25-.22-.27-.43-.53-.66-.79-.23-.26-.47-.53-.71-.78-.21-.23-.43-.45-.66-.67-.32-.31-.64-.62-.98-.9l-.57-.48c-.88-.72-1.81-1.37-2.78-1.96-.77-.46-1.61-.95-2.53-1.46-.47-.26-.96-.53-1.47-.8-1.15-.61-2.4-1.25-3.77-1.92,.32,.13,1.45,.6,3.12,1.32,.29,.13,.59,.26,.9,.4,.18,.08,.36,.16,.54,.23,.72,.32,1.5,.67,2.32,1.05,.56,.25,1.13,.52,1.73,.79,.88,.41,1.81,.85,2.77,1.31,.02,.02,.04,.03,.07,.03,.28,.14,.57,.28,.86,.42,.86,.42,1.74,.85,2.62,1.3,.01,.01,.02,.01,.03,.01,8.26,4.2,17.14,9.49,18.66,13.54,.27,.73,.22,1.24,0,1.64Z"/><path class="cls-32" d="M655.57,365.09l-16.74,2.24s-1.1,.26-2.83,.59c-3,.57-7.9,1.35-12.14,1.34-.88,0-1.74-.04-2.54-.12l7.37-6.92c.32,.32,.71,.61,1.13,.87,2.1,1.24,5.04,1.96,8.09,2.36,2.37,.3,4.2,.33,4.2,.33l10.18-.57c1.09-.06,2.18-.11,3.28-.12Z"/><path class="cls-34" d="M637.91,365.45l-1.91,2.47c-3,.57-7.9,1.35-12.14,1.34-.88,0-1.74-.04-2.54-.12l7.37-6.92c.32,.32,.71,.61,1.13,.87,2.1,1.24,5.04,1.96,8.09,2.36Z"/><path class="cls-21" d="M629.82,363.09l-8.5,6.05s-8.65-1.72-3.86-6.92c2.42-2.62,9.85-6.27,14.47-8.83-.86,.81-2.64,2.27-3.28,3.2-2.07,2.98-.26,5.15,1.17,6.51Z"/><path class="cls-41" d="M87.4,359.24c-4.74,27.95-2.59,53.06,.82,71.34,5.53,29.69,7.75,59.9,6.17,90.06-.25,4.84-.52,9.67-.8,14.5-1.49,25.6-2.2,51.75-6.14,77.12v.03c-.02,.14-.04,.27-.06,.41-1.77,11.27-2.2,22.66-4.89,33.9-3.85,16.12-10.19,31.73-15.64,47.32-3.51,10.05-6.86,20.39-10.3,30.69-2.02,6.06-4.08,12.11-6.23,18.08-2.78,7.72-6.12,15.08-7.71,23.1-1.77,8.9-2.59,17.95-2.62,27.02-.1,24.22,5.41,48.24,13.75,70.87,2.47,6.73,5.65,13.17,8.56,19.7,1.2,2.69,2.35,5.39,3.39,8.14,3.38,8.92,9.37,16.85,14.51,24.96,2.99,4.71,6.58,8.74,9.07,13.52,.59,1.12,1.11,2.27,1.54,3.49,.12,.3,.23,.61,.33,.92,2.89,8.99,3.85,18.41,3.53,27.94-.71,21.09-7.7,42.76-14.02,61.72-7.16-.68-16.5,.67-23.66,0,6.41-16.68,10.27-35.91,10.45-54.33,.05-4.85-.16-9.65-.64-14.33-1.62-15.65-5.22-31.04-9.9-46.05-3-9.62-6.85-18.71-10.77-27.83,6.79,17.63,16.85,49.18,17.51,82.54,0,0,0,.02,0,.03,.4,20.21-2.66,41.07-11.98,59.9h-11.69s18.33-21.84,18.3-54.89c0-6.32-.69-13.05-2.29-20.11,0,0,.11,1.43,.18,3.93,.01,.01,.01,.02,0,.03,.35,12.58-.35,51.92-21.18,71.06l-24-.02s29.17-18.64,24.55-79.07c-.73-9.52-2.3-20.08-4.95-31.76,.35,2.21,3.94,26.28-.73,54.19-3.18,19-10.21,39.79-24.7,56.64l-5.17,.02s17.44-32.85,22.17-64.75c1.01-6.8,1.44-13.55,1-19.94-2.5-36.33-15.5-88.33-15.84-104.66-.12-5.87-1.27-14.53-1.73-25.65-.82-19.86,.55-47.59,13.9-81.35,20.83-52.67,34.67-101.84,32-125.5,0,0-2.67-43.77-4.36-98.21v-.05c-2.19-70.43-2.72-158.68,6.3-193.06,3.16-12.03,5.62-23.31,7.53-33.67,7.78-42.15,6.54-69.07,6.54-69.07l12.72-8.37,1.76-1.15h0l9.16-6.03s2.67,36.45-1.35,73.54h0c-1.8,16.61-4.94,33.33-10.26,46.97h0c-2,5.14-4.31,9.84-6.97,13.93-1.83,2.81-3.41,5.75-4.75,8.77h0c-7.54,17.01-7.74,36.78-5.55,53.7v.02c.02,.15,.04,.29,.06,.43,2.88,21.8,9.67,38.75,9.67,38.75,0,0-6.35-30.13-4.93-59.22v-.02c.64-13.24,2.89-26.25,8.09-36.12,1.55-2.97,3.38-5.66,5.51-7.98,2.7-2.94,5.06-6.86,7.11-11.49h0c16.84-37.9,13.66-124.09,13.66-124.09l15.56-10.97s-.39,45.72-4.59,66.85c2.71-12.23,11.89-55.16,10.37-69.96l16.44-9.78s-5.39,73.83-38.66,149.35c-6.63,15.04-10.78,29.87-13.16,43.98v.02Z"/><path class="cls-41" d="M259.38,0l-7.96,5s-18.74,31.06-44.56,67.05c-13.92,19.4-29.9,40.23-46.11,58.4l-.03,.03c-12.49,14.01-25.12,26.44-37.05,35.41C67.51,208.11,0,222,0,222v-14.33s68.95-13.98,120.56-57.37c15.99-13.44,30.31-29.7,40.41-49.25-.77,1.21-16.28,25.1-54.25,51.72-25.05,17.58-59.88,36.34-106.72,50.56v-15.66s36.75-5.54,81.64-32.27c15.43-9.17,31.81-20.86,48-35.69-1.17,.84-21.61,15.55-45.53,29.33-18.09,10.42-38.17,20.31-53.41,23.28,1.19-.51,38.81-16.61,57.27-31.47,.34-.28,.68-.56,1.01-.84-.08,.04-.35,.2-.81,.45-7.69,4.19-66.69,35.73-88.17,28.87v-46s30.18,3.97,69.26-27.76h.01c1.78-1.45,3.58-2.97,5.4-4.57,20.15-17.74,37.7-33.61,50.45-45.26-21.03,18.46-54.27,45.19-85.87,60.36-13.78,6.6-27.24,11.01-39.25,11.57v-15.34s16.83-.34,31.51-5.09c5.76-1.87,11.19-4.42,15.14-7.9-.31,.1-5.52,1.74-12.53,3.39-10.89,2.57-26.11,5.14-34.12,1.94V55.33s9.51-1.27,21.38-4.6c9.96-2.8,21.59-7.04,30.63-13.19,5.99-4.07,10.83-8.97,13.31-14.86-.42,.33-14.01,10.98-29.22,17.23-6.83,2.81-13.99,4.73-20.43,4.42,0,0,11.6-4.41,21.52-9.59,6.9-3.61,12.99-7.59,13.81-10.74,0,0-1.12,.68-3.07,1.74-7.78,4.24-28.71,14.63-43.67,12.58-1.49-.2-2.91-.52-4.26-.99V0H52s-.67,10-22.33,17c0,0,30.66-4.62,31.66-16.98h36.67s-7.95,21.63-24.71,32.31c-2.84,1.82-5.94,3.32-9.29,4.34,0,0,10.96,.78,22.36-9.79,5.23-4.84,10.56-12.08,14.97-22.88,0,0,.49,5.68-1.84,14.12-3.79,13.74-15.05,34.8-48.09,50.47-4.77,2.26-10,4.41-15.73,6.41,0,0,5.26-.61,13.03-3.15,9.85-3.21,23.73-9.5,36.02-21.54C96.1,39.17,106.12,23.11,110.33,.02l49.34-.02s-7.54,51.06-32.38,74.69c-4.22,4-8.92,7.22-14.17,9.27,1.16-.35,10.92-3.53,21.88-13.54,11.66-10.67,24.66-29.09,30-60.09L166.78,.02h5.22s.48,22.17-4.42,39.8c-.27,.98-.55,1.93-.86,2.87-.68,2.11-1.44,4.13-2.31,6.01-1.86,4.03-4.18,7.4-7.06,9.62,.19-.09,2.09-1.07,4.73-3.57,6.42-6.08,17.18-21.21,18.03-54.73h42.48s-8.92,53.95-51.56,81.29c1.41-.66,46.54-22.25,61.97-81.31h26.38Z"/><path class="cls-41" d="M57,212.33s-1.01,57.17-10.52,90.85h0c-1.41,5-3.01,9.47-4.81,13.16-14,28.66-11.1,91.66-11.1,91.66l8.43,143s.25,2.32,.59,6.25h0c1.51,17.29,4.77,65.63-3.92,83.34C25.54,661.23,2.51,738.1,.17,745.85c2.24-8.65,26.58-102.33,28.33-114.62,0,0,6.5-57.56-2.83-109.56,0,0-9.51,13.11-7.34,22.14,10.17,42.19,3.83,83.69,1.78,93.11-5.11,23.41-20.11,75.53-20.11,75.53V230.33l10.33-4.44s3.17,22.12,4.19,46.22h0c.9,21.48,.1,44.52-6.19,54.89-13.33,22,1.34,144.67,1.34,144.67,0,0-.67-115.18,2-122.92,1.58-4.6,8.25-11.94,12.07-38.53v-.03c2.59-18.15,3.86-45.27,1.26-86.6l14-6.59s1.53,21.8,1.82,43.8h0c.09,6.84,.07,13.69-.16,19.91,2.32-15.71,5.09-35.93,6.2-49.91v-.03c.58-7.15,.72-12.66,.14-15.1l2.44-.81h0l2.81-.94,4.75-1.59Z"/><path class="cls-61" d="M159.67,678.34l24,73.66c1.7,11.91-16.04,49.29-17.67,60.67-5.39,37.77,8.67,82.33,8.67,82.33,0,0-35.1-61.7-29.67-92.08,2.38-13.32,8.21-38.1,8.21-38.1,0,0-40.21,20.18,0,104.18s18.07,155,18.07,155h-12.53l-11.9,.02-54.86-.03s57-44.32,15.12-125.19c-27.13-52.38-35.08-89.37-36.24-113.26-.8-16.53,3.74-32.85,12.52-46.86,72.86-116.26,29.6-233.05,29.6-233.05l-1-10.29,27.22,118.33c-1.11,64.67-19.77,108.46-23.56,113s-17.61,23.83-23.18,41.57c-10.41,33.17,4.84,63.1,4.84,63.1-1.67-4.27-16.66-57.72,20.22-87.57,18.29-14.8,25.45-121.76,25.45-121.76l16.67,56.34Z"/><path class="cls-51" d="M190,763.02s.04,.45,.09,1.28c.47,7.02,2.21,41.14-6.43,61.7-9.67,23,11.1,131.08,11.1,131.08,0,0,9.1,28.92-6.83,66.92h18.9s17.67-31,12.33-49.33c0,0,9,17.67,2,33s-7.17,16.33-7.17,16.33l20.83,.02s31-77.52,5.67-113.52c0,0,37.67,11.22,6.83,113.52l39.33-.02s-16.67-35.5,0-64.17c0,0-11,21.67,7.5,64.17l17.8,.02s-15.63-43.69,12.53-65.69,14.33-33.83,14.33-33.83l-13.33-12.67s-5.17-4-2.5,11.33-10.17,30-10.17,30c0,0,9.67-17,7-26s-2.17-21-2.17-21l-18.67-18.17s-22,24.17-10,52.67,4.5,37.33,4.5,37.33c0,0,7.17-3.67-11.33-51,0,0-9.17-18.46-2.33-33.48,0,0-14.5,21.31-9.83,47.14,0,0-12.5-28.5,10.5-69.17l-39.33-42.5s14.33,34.33,6,53.67-29.67,29.17-21.67,60,7.17,34.83,7.17,34.83c0,0-7.83-29-10.5-35.67s-9.67-30.67,5-49.83-6.17-86.67-6.17-86.67l-15.67-20.5s11.67,37.17,4,48-15.67,27.83-12.17,38.67c0,0-7.17-9.5,1.17-32.17s-2.33-69.17-2.33-69.67-8.83-13.17-8.83-13.17"/><path class="cls-15" d="M464.54,859.24c7.55-6.62,62.48,12.03,88.89-4.64,26.41-16.67-.44,43.23-4,44.9s-38.96,32.58-67.03-1.72c-28.08-34.3-23.63-33.48-17.85-38.55Z"/><path class="cls-41" d="M911.6,1023.62c.02-1.16,.08-4.92,.15-10.6-.02,5.68-.12,9.44-.15,10.6Z"/><path class="cls-41" d="M1006.33,1s16.26,53.99,1.09,94.79c-1.08,2.93-2.33,5.78-3.75,8.54-21.34,41.34-31.34,111.55-14.67,180.77,7.73,32.1,15.89,65.69,20.68,95.5,2.96,18.39,4.65,35.34,4.17,49.62-.07,2.08-.19,4.1-.35,6.06-.83,9.84-2.88,18.16-6.5,24.48-16.68,29.1-24.1,177.67,.91,229.86-8.62-17.23-31.61-74.05-22.06-175.02,1.03-10.99,2.76-21.87,5.08-32.64,.13-.63,.27-1.26,.41-1.9,2.31-10.44,5.17-20.79,8.46-30.99,3.76-11.62,6.47-35.12-1.61-81.41-1.24-7.1-2.74-14.75-4.52-22.97-22-101.36-35.34-186.69-22.67-213.36,6.42-13.5,12.15-30.78,15.89-47.31,3.66-16.1,5.43-31.5,4.11-42.02-2.67-21.33,7.33-34.67,7.33-34.67L999.67,.02l-27.34-.02s-8.35,13.1-15.78,35.34c-3.87,11.59-7.49,25.66-9.55,41.66-6,46.67,14.67,179.56,14.67,179.56,0,0,27.33,109.75,21.33,146.1,0,0-27.33-173.53-38-201.93-6.24-16.61-12.7-68.15-13-116.43-.21-34.3,2.69-66.96,11-84.28l-107.33,.31s18.44,14.45,34.83,43.53c7.28,12.9,14.16,28.68,18.84,47.36,1.63,6.49,2.99,13.33,4.01,20.52,2.68,18.89,3.02,40.19-.35,63.93-15.42,108.53,25.07,163.74,31.23,171.41,.58,.73,1.13,1.49,1.62,2.29,.81,1.32,2.17,3.58,3.87,6.61,13.21,23.51,47.39,93.87,13.95,141.02-40.67,57.33-35.34,100-35.34,100,0,0-29.11-19.45,18.67-101.33,16.6-28.45,7.63-70.25-3.55-101.65-8.87-24.9-19.12-43.26-19.12-43.26,0,0-45.33-55.91-37.33-127.17,7.78-69.31,13.56-117.24-7.86-148.03-.6-.87-1.22-1.72-1.87-2.56C833.67,42.33,809,.02,809,.02h-31.32s14.89,30.56,30.87,62.41c5.35,10.67,10.82,21.48,15.89,31.35,3.01,5.84,5.87,11.34,8.49,16.28,2.79,5.27,5.3,9.9,7.4,13.61,11.51,20.36,11.11,68.58,10,102.44-.57,17.14-1.31,30.59-.78,34.89,1.98,16.08,12,45.85,13.21,76.86,.29,7.13,.1,14.32-.75,21.43-.69,5.81-1.9,12.35-3.43,19.27-1.47,6.64-3.26,13.63-5.2,20.65-15.62,56.45-10.21,116.83,15.98,169.22,.54,1.09,1.09,2.17,1.64,3.24,18.28,35.45-12.24,139.51-23.08,173.66-2.5,7.9-4.06,16.05-4.64,24.32-2.28,32.12-6.45,114.04,6.61,152.68,16.44,48.67,27.11,86.67,16.44,98-1.53,1.63-2.72,2.86-3.65,3.78l39.65,2.43s5.34-79.98-16-143.76c-21.33-63.78,46.67-281.41,34-322.26,0,0,19.34-.3-26,213.09,0,0-13.42,54.95,3.29,109.17,13.05,42.35,14.24,104.7,14.13,129.97,.37-29.74,.89-110.72-3.42-148.42,0,0-16.15-60.67,3.26-108,0,0,21.41,216.67,9.41,266.67l44.5,1.02-2.5-197.69,14.67,197.69s13.37-215.72,8.49-312.49c6.46,76.27,22.37,281.89,8.84,312.47l29,.02V.02l-17.67,.98Z"/><path class="cls-39" d="M142.53,20.96c-.91,4.91-2.97,9.36-5.84,13.34,2.08-4.39,4.03-8.84,5.84-13.34Z"/><path class="cls-39" d="M31.87,40.45c1.4-.18,2.81-.36,4.23-.54-6.83,2.81-13.99,4.73-20.43,4.42,0,0,11.6-4.41,21.52-9.59-1.91,1.77-3.71,3.65-5.32,5.71Z"/><path class="cls-39" d="M19.08,15.74c-5.46-.2-10.91-.4-16.37-.6,2.6-5.11,9.44-5.69,15.02-6.96,5.83-1.34,11.28-4.22,15.76-8.18,.03-.02,.05-.05,.08-.07-.02,.02-.03,.05-.04,.07-4.02,7.04-6.8,14.8-8.11,22.8,6.58-2,13.15-4,19.73-6,7.82-2.37,16.88-6.01,18.68-13.98-1.14,8.32-6.99,15.22-13.32,20.74-.85,.74-1.71,1.46-2.58,2.18-7.78,4.24-28.71,14.63-43.67,12.58,2.46-8.81,7.69-16.84,14.82-22.58Z"/><path class="cls-39" d="M99.49,18.12c-3.79,13.74-15.05,34.8-48.09,50.47,.22-.27,.45-.54,.68-.81-16.97,5.61-34.42,9.83-52.08,12.61-.63,.11-1.26,.2-1.89,.3-.05-2.7,.68-5.21,1.89-7.56,2.19-4.23,5.97-7.9,9.72-11.01,4.17-3.45,8.71-6.98,11.66-11.39,9.96-2.8,21.59-7.04,30.63-13.19,7.25-1.29,14.43-2.92,21.28-5.21-2.84,1.82-5.94,3.32-9.29,4.34,0,0,10.96,.78,22.36-9.79,4.67-2.41,9.07-5.29,13.13-8.76Z"/><path class="cls-39" d="M212.43,52.36c-.99,6.87-2.92,13.42-5.57,19.69-13.92,19.4-29.9,40.23-46.11,58.4l-.03,.03c-6.3,5.96-12.94,11.68-20.88,15.07-6.11,2.61-12.69,3.73-19.28,4.75,15.99-13.44,30.31-29.7,40.41-49.25-.77,1.21-16.28,25.1-54.25,51.72-9.27,2.06-18.35,4.99-27.06,8.77,.6-2.07,1.27-4.11,1.98-6.14,15.43-9.17,31.81-20.86,48-35.69-1.17,.84-21.61,15.55-45.53,29.33,1.18-2.78,2.46-5.51,3.86-8.19,.06-.13,.13-.26,.2-.39,4.75-9.08,10.71-17.53,17.7-25.04-15.82,15.64-36.36,26.44-58.22,30.59,11.08-22.55,33.21-38.45,42.98-61.6-6.88,4.16-14.02,7.89-21.36,11.16,1.78-1.45,3.58-2.97,5.4-4.57,20.15-17.74,37.7-33.61,50.45-45.26-21.03,18.46-54.27,45.19-85.87,60.36-4.58,1.2-9.21,2.23-13.88,3.09,1.9-4.06,3.95-8.05,6.14-11.95,5.76-1.87,11.19-4.42,15.14-7.9-.31,.1-5.52,1.74-12.53,3.39,4.37-7.29,9.24-14.28,14.58-20.88,9.85-3.21,23.73-9.5,36.02-21.54-4.22,6.34-9.07,12.28-14.47,17.66,13.48-6.74,28.6-9.52,42.42-15.53,4.77-2.07,9.48-4.7,13.72-7.86,.02,0,.03-.02,.04-.03l.27-.21c2.4-1.82,4.65-3.81,6.65-5.97,.32-.34,.63-.68,.93-1.03,.86-.98,1.67-1.99,2.41-3.04-.22,.48-.45,.97-.69,1.45-.06,.13-.12,.25-.17,.37-8.46,17.53-18.94,34.07-31.18,49.19,7.53-3.3,15.22-6.75,22.64-10.62-4.22,4-8.92,7.22-14.17,9.27,1.16-.35,10.92-3.53,21.88-13.54,13.29-7.8,25.09-17.41,32.58-30.6,.28-.49,.55-.98,.81-1.47-.56,1.45-1.11,2.89-1.67,4.34-.77,2-1.54,4.01-2.31,6.01-1.86,4.03-4.18,7.4-7.06,9.62,.19-.09,2.09-1.07,4.73-3.57-5.03,13.08-10.06,26.17-15.1,39.25,23.48-11.19,47.53-22.79,65.45-41.64Z"/><path class="cls-39" d="M79.54,313.07c3.57-16.69,7.04-33.44,10.42-50.26-.05,1.1-.11,2.19-.16,3.29h0c-1.8,16.61-4.94,33.33-10.26,46.97Z"/><path class="cls-39" d="M29.61,762.84c.66-1.03,1.37-2.04,2.12-3.03,3.5-4.6,7.8-8.54,12.42-12-5.56,4.27-10.45,9.36-14.54,15.03Z"/><path class="cls-39" d="M84.88,993.22c.29-.78,.57-1.57,.84-2.36-.24,.79-.52,1.58-.84,2.36Z"/><path class="cls-39" d="M94.68,962.35c-.27-2.7-.55-5.41-.82-8.12-1.28,12.45-4.01,24.75-8.12,36.57,3.31-10.83-.24-22.8-3.8-33.73,.16,15.72-5.15,31.44-14.8,43.85,4.72-14.4,14.77-27.82,13.5-42.92-.55-6.53-3.25-12.87-4.78-19.24,.09,8.63-.78,17.27-2.61,25.69-.73-5.91-1.62-11.8-2.7-17.66,.32,7.75-.71,15.57-3.1,22.95,.05-4.85-.16-9.65-.64-14.33-1.62-15.65-5.22-31.04-9.9-46.05-3-9.62-6.85-18.71-10.77-27.83,6.79,17.63,16.85,49.18,17.51,82.54-.73-3.45-1.23-6.95-1.51-10.47,.07,7.48-1.05,14.97-3.3,22.1-.17-2.19-.35-4.39-.55-6.59-.48-5.42-1.1-10.84-2.11-16.15,.01,0,.01-.02,0-.03-1.46-7.74-3.75-15.23-7.67-22.05-1.06,6.89-1.64,13.84-1.75,20.81-1.99-5.12-3.18-10.57-3.51-16.06-.04,10.81-1.41,21.62-4.1,32.09-1.51-11.16-2.12-22.44-1.83-33.7-.49,3.65-1.08,7.29-1.77,10.91-.73-9.52-2.3-20.08-4.95-31.76,.35,2.21,3.94,26.28-.73,54.19-1.21,3.8-2.54,7.56-3.98,11.28-.74-6.54-1.98-13.02-3.72-19.37,1.01-6.8,1.44-13.55,1-19.94-2.5-36.33-15.5-88.33-15.84-104.66-.12-5.87-1.27-14.53-1.73-25.65,.68-4.19,1.43-8.37,2.21-12.54,1-5.41,2.07-10.82,3.87-16.02,3.1-8.94,8.41-17.1,15.32-23.57-7.11,11.8-10.88,25.59-10.76,39.37,1.57-12.03,6.27-23.59,13.37-33.42-8.82,13.62-10.47,30.62-10.56,47.34,1.27-18.68,10.02-36.85,24.14-49.21-.74,9.68-5.34,18.68-6.68,28.3-.85,6.13-.35,12.36,.15,18.53,1.15,14.2,2.34,28.6,7.12,42.02,4.31,12.07,11.34,22.87,18.53,33.56,2.48,3.69,4.98,7.37,7.4,11.09,7.37,11.35,14,23.2,19.57,35.53,.2,.43,.4,.86,.59,1.3,.32,.73,.64,1.46,.95,2.19,.12,.3,.23,.61,.33,.92,2.89,8.99,3.85,18.41,3.53,27.94Z"/><path class="cls-39" d="M819.29,37.12c2.24,5.45,4.21,11.02,5.91,16.67-2.85-5.27-5.11-10.73-5.91-16.67Z"/><path class="cls-39" d="M806.6,41.56c5.95,17.4,11.9,34.81,17.84,52.22-5.07-9.87-10.54-20.68-15.89-31.35,.62-7.06,.17-14.08-1.95-20.87Z"/><path class="cls-39" d="M956.32,406.12c-4.68-13.77-9.35-27.53-14.03-41.29,7.94,12.35,12.86,26.65,14.03,41.29Z"/><path class="cls-39" d="M1013.5,436.28c-1.46-16.52-2.62-33.07-3.5-49.63,2.49,14.38,3.78,28.97,3.85,43.57,.02,2.95-.02,5.9-.11,8.85-.08-.93-.17-1.86-.24-2.79Z"/><path class="cls-39" d="M870.5,43.86c-2.11-10.45-4.31-20.88-6.6-31.29,10.97,25.32,19.49,51.7,25.44,78.65-4.68-18.68-11.56-34.46-18.84-47.36Z"/><path class="cls-39" d="M852.47,259.68c-1.65-13.84-2.35-27-1.93-40.74,.36-11.74,.45-23.5,.13-35.23-.52-19.27-.57-42.74-10.35-60.03-2.1-3.71-4.61-8.34-7.4-13.61,.37-19.01-2.26-38.07-7.73-56.27,3.52,6.52,7.94,12.73,11.59,19.18,10.69,18.89,15.12,41.25,12.44,62.79,7.34-19,11.28-39.98,9.91-60.2,.22,3.22,5.49,9.26,6.88,12.53,2.04,4.79,3.56,9.79,4.71,14.86,2.64,11.61,3.32,23.61,3.3,35.49-.06,30.78-6.06,60.93-7.65,91.54-1.6,30.74,4.93,61.9,18.93,89.33,5.56,10.9,12.26,21.22,18.54,31.74,4.81,8.06,9.38,16.24,12.99,24.9,2.18,5.21,4.01,10.61,4.84,16.2,1.82,12.27-1.26,24.67-4.32,36.69-8.72-24.35-20.71-47.53-35.55-68.72-2.25,18.27,4.9,36.21,11.05,53.57s11.4,36.45,5.48,53.89c-5.87,17.29-21.39,29.12-33.16,43.08,7.95-32.69,15.95-66.59,9.71-99.64l-18.43,36.79c1.32-2.63-.35-10.07-.4-13.11-.08-4.74-.1-9.48-.05-14.21,.1-9.48,.46-18.95,1.09-28.41,.79-11.85,2.4-23.62,3.78-35.41,.58-4.94,2.75-12.18,1.9-17.03-.78-4.44-4.87-9.26-6.78-13.45-8.57-18.77-9.35-36.79-9.25-56.96s5.56-38.81,9.33-57.91"/><path class="cls-39" d="M993.67,345.69c1.78,8.22,3.28,15.87,4.52,22.97-4.08,37.33-6.37,74.86-6.85,112.4-.02,1.24-.04,2.47-.05,3.71-.12-.6-.25-1.21-.36-1.81-9.14-45.07-16.33-90.54-21.56-136.23,1.25,17.93,2.51,35.86,3.76,53.8-8.14-50.89-17.03-101.66-26.67-152.29-6.61,33.79,.49,68.59,7.57,102.29-7.42-24.54-16.95-48.44-28.45-71.35-3.41,25.71,5.06,51.34,13.4,75.9,1.1,3.25,2.21,6.5,3.31,9.75-3.35-5.23-7.25-10.11-11.63-14.53-.31,1.89-.62,3.79-.94,5.68-1.7-3.03-3.06-5.29-3.87-6.61-.49-.8-1.04-1.56-1.62-2.29-6.16-7.67-46.65-62.88-31.23-171.41,3.37-23.74,3.03-45.04,.35-63.93,1.98,11.58,3.48,23.25,4.5,34.96,8.76-29.91,11.36-61.6,7.59-92.54,4.92,25.06,9.85,50.13,14.77,75.19,2.53-15.34,6.49-30.43,11.79-45.05,.3,48.28,6.76,99.82,13,116.43,10.67,28.4,38,201.93,38,201.93,6-36.35-21.33-146.1-21.33-146.1,0,0-20.67-132.89-14.67-179.56,2.06-16,5.68-30.07,9.55-41.66,6.85,38.16,9.59,77.05,8.17,115.79,4.01-33.13,10.38-65.98,19.03-98.21,1.28,10.68,2.34,21.37,3.14,32.1-3.74,16.53-9.47,33.81-15.89,47.31-12.67,26.67,.67,112,22.67,213.36Z"/><path class="cls-39" d="M1008.25,276.63c-.75,34.66-.27,69.35,1.43,103.97-4.79-29.81-12.95-63.4-20.68-95.5-16.67-69.22-6.67-139.43,14.67-180.77,1.42-2.76,2.67-5.61,3.75-8.54,1.39,24.16,1.96,48.37,1.71,72.56,4.95-12.31,9.92-24.61,14.87-36.92v181.62c-5.25-12.14-10.5-24.28-15.75-36.42Z"/><path class="cls-51" d="M816.18,810.78s-38.34,142.22-13.76,213.22h28.78s7.65-26.59-9.2-95c0,0,34.06,76.56,25.03,96.28l15.65-1.17s1.85-17.97-19.05-100.83c-5.68-22.51-7.75-45.79-6.16-68.95l5.81-84.68-27.1,41.13Z"/><rect class="cls-1" y="-.07" width="1023.07" height="1023.07"/><path class="cls-28" d="M571.82,758.7c-.45,.21-.85,.39-1.2,.54-.1,.04-.19,.09-.28,.13-.82,.38-1.28,.59-1.28,.59-.66,0-1.33,.02-1.99,.04-1.66,.06-3.33,.19-4.98,.38-5.89,.65-11.59,2-16.3,3.36-3.16,.92-5.87,1.84-7.89,2.57-.02,.01-.05,.02-.07,.03-.18,.06-.36,.13-.53,.2-.55,.2-1.03,.39-1.45,.55-6.89-.7-29.27,3.78-29.27,3.78-1.21-.21-2.42-.38-3.65-.52-1.24-.15-2.5-.26-3.75-.35-2.95-.22-5.91-.32-8.83-.46-3.48-.15-6.96-.33-10.45-.43-3.26-.09-6.53,.22-9.63-.92-5.73-2.11-11.27-2.7-17.32-3.29-3-.29-6.01-.55-9.01-.82-.98-.09-8.94-1.42-9.25-.9,.73-1.23,2.36-3.53,5.12-5.54,3.43-2.48,8.6-4.5,15.96-3.4,0,0,13.54-1.81,14.11,13.03v.05s0-.03,.01-.05c.64-4.79,3.24-14.75,13.65-12.04,0,0,16.06-4.56,17.62,13.8-.03-3.5,.66-10.27,6.27-11.98,7.67-2.33,24-2.81,24-2.81,0,0,6.07,4.54,5.96,11.07,.37-3.72,2.53-14.6,14.71-13.74,14.67,1.04,19.72,7.12,19.72,7.13Z"/><path class="cls-20" d="M469.88,767.27c-1.83-.93-3.69-2.53-5.88-4.25-4.22-3.31-9,.09-16.56-1.21-4-.69-6.32-2.53-7.63-4.17,3.43-2.48,8.6-4.5,15.96-3.4,0,0,13.54-1.81,14.11,13.03Z"/><path class="cls-20" d="M571.82,758.7c-.45,.21-.85,.39-1.2,.54-.1,.04-.19,.09-.28,.13-1.13,.28-2.24,.48-3.27,.63-2.81,.4-4.98,.38-4.98,.38,0,0-7.98-4.38-17.42,2.62-4.9,3.63-10.03,3.98-13.84,3.46-3.09-.42-5.84-2.29-7.2-5.1-1.69-3.5-5.12-7.42-10.52,.44-3.95,5.75-7.37,8.03-10.18,8.54-1.41,.26-2.66,.07-3.75-.35-1.19-.45-2.18-1.18-2.95-1.9-2.89-2.68-10.45-6.9-10.45-6.9,0,0-6.78,4.91-10.67,6.47-1.87,.74-3.53,.46-5.22-.4,.64-4.79,3.24-14.75,13.65-12.04,0,0,16.06-4.56,17.62,13.8-.03-3.5,.66-10.27,6.27-11.98,7.67-2.33,24-2.81,24-2.81,0,0,6.07,4.54,5.96,11.07,.37-3.72,2.53-14.6,14.71-13.74,14.67,1.04,19.72,7.12,19.72,7.13Z"/></g><g id="eyelashes"><g><path class="cls-47" d="M166.78,281.46c6.38,15.51,18.15,36.53,35.11,41.53l-2.67,7.54c-18.31-8.16-27.69-30.88-32.44-49.07h0Z"/><path class="cls-47" d="M180.11,275.24c1.52,15.95,10.02,31.17,22.97,40.51,4.22,3.03,8.81,5.49,13.61,7.39l-3.39,7.25c-20.41-10.69-33.81-32.02-33.19-55.14h0Z"/><path class="cls-47" d="M194.78,276.53c.94,13.96,8.2,27.4,19.49,35.57,3.66,2.65,7.64,4.8,11.81,6.46l-3.49,7.2c-17.77-9.76-29.28-28.85-27.81-49.23h0Z"/><path class="cls-47" d="M204.11,280.35c3.43,7.77,7.41,15.35,11.99,22.47,4.26,6.38,9.53,13.78,16.24,17.1l-4.01,6.92c-12.78-9.07-20.1-31.82-24.21-46.49h0Z"/><path class="cls-47" d="M219,294.82c2.58,6.07,6.6,11.64,11.67,15.74,4.83,3.93,10.75,6.17,16.88,6.3l-1.08,7.93c-3.69-.87-7.25-2.26-10.4-4.23-9.13-5.65-14.88-15.48-17.06-25.73h0Z"/><path class="cls-47" d="M222.59,267.62c3.97,19.43,12.98,42.5,30.98,52.73l-4.29,6.75c-18.18-13.46-24.96-37.92-26.69-59.48h0Z"/><path class="cls-47" d="M234.56,284.56c6.46,13.16,15.68,25.23,27.47,33.94,2.55,1.83,5.55,3.59,8.34,5.05l-4.07,6.89c-1.05-.83-3.41-2.52-4.4-3.32-13.09-11.06-22.11-26.41-27.34-42.56h0Z"/><path class="cls-47" d="M241.89,281.67c3.33,10.51,9.07,20.15,16.37,28.32,4.29,4.68,9.38,8.82,14.76,12.06l-4.58,6.56c-3.6-3.09-7.06-6.3-9.95-9.97-8.61-10.56-14.4-23.56-16.6-36.96h0Z"/><path class="cls-47" d="M249.44,283.85c1.98,7.71,5.11,15.15,9.15,21.94,3.92,6.48,9.07,12.39,15.43,16.3l-4.72,6.46c-12.73-11.28-18.22-28.3-19.86-44.71h0Z"/><path class="cls-47" d="M262.11,297.27c.06,6.13,2.12,12.22,6.01,16.88,2.21,2.55,5.03,4.52,8.05,5.91l-4.28,6.76c-8.79-6.85-12.65-18.88-9.79-29.55h0Z"/><path class="cls-47" d="M269.67,274.33c-1.89,10.23-.75,20.94,3.14,30.5,2.34,5.48,5.79,10.47,9.91,14.7l-6.11,5.17c-2.56-3.79-4.95-7.68-6.49-11.94-4.79-12.17-4.74-26.17-.46-38.44h0Z"/><path class="cls-47" d="M276.78,293.53c-.51,5.04,.12,10.25,1.89,14.91,1.62,4.42,4.6,8.13,8.36,10.74l-5.41,5.9c-7.59-8.56-8.79-21.15-4.85-31.55h0Z"/><path class="cls-47" d="M287.12,276.11c-.29,7.96-.1,15.97,.75,23.86,.84,7.33,2.17,15.48,5.8,21.7l-7.17,3.54c-5.29-14.44-2.2-34.32,.62-49.11h0Z"/><polygon class="cls-47" points="300.89 269.22 304.38 322.16 296.38 322.09 300.89 269.22 300.89 269.22"/><path class="cls-47" d="M293.44,290.33c-.11,4.94,.09,9.92,.72,14.79,.59,4.32,1.53,9.39,3.85,12.84l-7.24,3.41c-1.76-5.64-1.3-10.8-.61-16.28,.7-5.02,1.84-9.93,3.28-14.76h0Z"/><path class="cls-47" d="M324.02,286.9c-7.61,7.37-13.39,17.34-14.17,27.95-.26,3.37,.1,6.71,.86,9.9l-7.92,1.15c-1.15-15.83,8.4-30.57,21.22-39h0Z"/><polygon class="cls-47" points="327.67 290.33 315.54 326.97 308.24 323.68 327.67 290.33 327.67 290.33"/><polygon class="cls-47" points="333.22 293.53 323.49 328.49 316.07 325.51 333.22 293.53 333.22 293.53"/><polygon class="cls-47" points="340.78 301 328.73 331.39 321.71 327.56 340.78 301 340.78 301"/><path class="cls-47" d="M353.73,310.85c-2.62,3.88-5.43,7.66-8.51,11.3-3.44,3.89-6.47,7.44-11.36,10.09l-2.74-7.52c3.8-.72,8-3.36,11.44-5.56,3.83-2.52,7.57-5.33,11.17-8.31h0Z"/><path class="cls-47" d="M352.53,319.71c-1.55,5.78-4.17,11.7-9.14,15.54l-3.5-7.19c5.03-.89,9.16-4.61,12.64-8.34h0Z"/><path class="cls-47" d="M360.6,322.26c-2.36,5.73-5,11.69-9.55,16.19-.81,.72-1.94,1.54-2.91,2.03l-2.53-7.59c.21-.02,.44-.02,.69-.03,2.53-.64,4.66-2.19,6.8-3.8,2.62-2.02,5.13-4.34,7.5-6.81h0Z"/><path class="cls-47" d="M364.21,330.4c-.85,4.84-4.2,9-8.29,11.67l-2.53-7.59c3.94,.22,8-1.23,10.82-4.08h0Z"/></g><g><path class="cls-47" d="M232.35,365.89c-5.07-1.59-10.37,1.3-14.39,4.34-1.29,1.03-3.02,2.65-4.2,3.85l1.67-2.34c3.93-5.08,9.52-9.88,16.35-9.86,.69,.03,1.13,.04,1.88,.23l-1.3,3.78h0Z"/><path class="cls-47" d="M245.19,371.12c-12.38,.86-27.18,6.91-29.52,20.54,.29-3.31,1.3-6.61,3.1-9.5,4.59-7.36,12.83-11.53,20.94-13.87,1.67-.47,3.29-.86,5.11-1.15l.38,3.98h0Z"/><path class="cls-47" d="M256.57,373.68c-9.44,1.06-20.31,4.79-24.82,13.88-.63,1.3-1.07,2.69-1.41,4.11,.31-2.94,1.29-5.81,2.9-8.31,5.1-7.65,14.09-11.65,22.81-13.65l.52,3.97h0Z"/><path class="cls-47" d="M258.08,379.62c-6.73,1.13-12.51,6.45-14.01,13.18-.42,1.57-.6,3.32-.75,4.93-.13-1.91-.16-4,.08-5.92,.88-6.82,5.72-12.75,12.03-15.43,.58-.25,1.1-.47,1.82-.68l.83,3.91h0Z"/><path class="cls-47" d="M265.98,379.2c-8.6,7.09-13.96,17.8-15.5,28.8,.12-2.85,.33-5.73,.94-8.56,1.74-8.66,5.78-16.92,11.98-23.31l2.57,3.07h0Z"/><path class="cls-47" d="M277.2,381.94c-4.44,3.41-7.11,8.98-7.13,14.6-.09,1.98,.27,3.94,.65,5.9-1.56-3.8-2.32-7.91-1.67-12.04,.63-4.27,2.58-8.38,5.6-11.54l2.56,3.08h0Z"/><path class="cls-47" d="M297.5,382.34c-6.17,1.2-8.78,6.9-7.9,12.8l.49,2.6-.98-2.49c-2.19-6.29-.22-12.91,5.9-16.11,.47-.25,.87-.45,1.49-.68l1,3.87h0Z"/><path class="cls-47" d="M283.27,382.17c-3.6,1.65-3.88,7.06-3.6,10.66-.37-.97-.82-2.28-1.06-3.29-.89-3.7-.57-8.44,2.79-10.92l1.86,3.54h0Z"/><path class="cls-47" d="M302.88,380.21c-.07,1.51-.5,2.31-.9,3.56-1.08,2.94-1.79,5.87-1.6,9.06-1.19-2.95-1.47-6.4-1.35-9.6,0-.78,.12-2.05-.13-2.64l3.98-.38h0Z"/><polygon class="cls-47" points="311.5 379.33 309.5 395.69 307.5 379.33 311.5 379.33 311.5 379.33"/><path class="cls-47" d="M315.42,375.68c5.96,1.69,9,10.77,6.25,15.99,.63-2.81-.03-5.63-1.46-7.85-1.2-1.77-3.07-3.98-5.21-4.16l.42-3.98h0Z"/><path class="cls-47" d="M328.01,375.02c-.02,.06,.41,.49,.49,.59,3.54,3.55,9.27,9.78,4.73,14.61,2.55-4.04-1.27-7.81-4.46-9.97-1.23-.92-2.59-1.56-3.77-2.6l3.01-2.63h0Z"/><path class="cls-47" d="M335.37,374.56c2.99,2.35,8.35,7.13,5.4,11.14,1.2-3.17-2.18-5.25-4.57-6.48-.87-.43-1.83-.84-2.68-1.11l1.85-3.55h0Z"/></g><g><path class="cls-47" d="M840.33,286.64c-2.07,11.52-8.88,22.43-19.37,28.14l-3.04-7.4c4.85-1.33,9.39-3.9,13.08-7.48,3.91-3.71,7.14-8.27,9.33-13.27h0Z"/><path class="cls-47" d="M830.16,275.52c-2.2,16.97-8.69,39.28-27.15,44.75l-1.62-7.84c15.85-2.17,24.82-23.09,28.76-36.91h0Z"/><path class="cls-47" d="M819.42,280.11c-2.81,13.41-8.21,26.64-17.92,36.64l-5.1-6.16c5.16-3.49,9.64-8.16,13.34-13.28,3.84-5.32,7.14-11.1,9.68-17.2h0Z"/><path class="cls-47" d="M810.47,284.13c-4.03,12.54-11.31,29.76-24.99,34.25l-1.7-7.82c5.8-.59,11.13-5.26,15.15-9.65,4.5-5.04,8.35-10.77,11.54-16.78h0Z"/><path class="cls-47" d="M796.61,271.89c3.94,19.24-.97,41.2-20.85,49.33l-2.63-7.56c3.94-1.08,7.73-2.79,10.9-5.46,10.26-8.58,13.17-23.38,12.58-36.31h0Z"/><path class="cls-47" d="M789.63,281.37c-1.34,10.73-3.51,21.83-9.55,31.05-2.42,3.49-5.69,6.62-10.1,7.84l-1.6-7.84c2.24-.08,4.83-1.6,7.07-3.82,7.04-7.35,11.06-17.58,14.18-27.23h0Z"/><path class="cls-47" d="M778.92,280.78c.08,10.58-.3,21.18-3.91,31.32-1.57,3.96-3.66,7.73-7.95,9.89l-2.95-7.43c2.22-.48,4.19-2.99,5.51-5.1,5.08-8.58,7.47-18.88,9.3-28.68h0Z"/><path class="cls-47" d="M769,273.89c1.86,11.24,2.4,22.96-1.39,33.97-1.35,3.79-3.5,7.58-6.76,10.7l-5.03-6.22c2.46-1.61,4.66-4.05,6.34-6.99,5.25-9.38,6.69-20.76,6.84-31.46h0Z"/><path class="cls-47" d="M757.22,271.89c4.02,13.15,9.72,36.97-2.92,46.91l-4.37-6.7c2.32-1.07,4.27-3.69,5.55-6.88,3.83-10.55,3.08-22.3,1.75-33.33h0Z"/><path class="cls-47" d="M753.89,276.78c2.6,14.84,2.53,34.62-12.04,43.38l-3.47-7.21c1.39-.51,2.72-1.2,3.97-2.1,9.51-7.45,11.45-22.63,11.54-34.07h0Z"/><path class="cls-47" d="M749.39,281.74c-.38,11.68-2.89,26.06-14.34,32.12l-2.87-7.47c4.63-.99,8.33-5.09,10.88-9.22,2.89-4.7,4.97-10.03,6.34-15.43h0Z"/><path class="cls-47" d="M737.11,280.11c1.23,13.18,1.46,32.16-9.02,42.01l-4.85-6.36c5.06-3.05,8.02-9.64,9.95-15.37,2.1-6.52,3.36-13.4,3.92-20.27h0Z"/><path class="cls-47" d="M730.33,271.89c3,15.5,5.87,42.27-10.11,51.7l-3.49-7.2c13.35-5.51,14.15-31.86,13.59-44.49h0Z"/><path class="cls-47" d="M722.94,256.56c.99,13.47,4.33,51.79-3.92,61.63l-5.83-5.48c.71-.57,1.64-2.27,2.11-3.37,1.13-2.68,1.9-5.48,2.58-8.4,3.18-14.49,4.29-29.54,5.06-44.37h0Z"/><path class="cls-47" d="M713.89,269.89c1.04,11.57,4.35,40.64-1.08,50.13-.53,.87-1.25,1.64-2.06,2.27l-4.38-6.7c-.05,.02-.09,.07-.09,.14,.57-.45,.9-1.19,1.24-1.92,2.44-5.96,3.25-12.56,4.19-19.01,1.06-8.23,1.75-16.56,2.18-24.91h0Z"/><path class="cls-47" d="M695.89,276.78c4.36,9.61,17.73,37.9,12.57,47.12l-6.84-4.15c.61-.57,.87-2.58,.96-3.55,.35-5.52-.53-11.17-1.46-16.72-1.36-7.63-3.16-15.22-5.23-22.7h0Z"/><path class="cls-47" d="M689.89,286c4.06,8.49,8,17.04,11.03,26.03,1.03,3.59,2.66,7.74,1.28,11.53l-7.22-3.45c-.04,.11-.07,.34,.05,.1,.08-.17,.12-.42,.16-.65,.42-5.06-.65-10.26-1.45-15.33-1.08-6.08-2.39-12.17-3.85-18.22h0Z"/><polygon class="cls-47" points="685 291.67 699.68 322.99 692.1 325.53 685 291.67 685 291.67"/><path class="cls-47" d="M680.11,294.41c3.93,8.88,7.88,18.5,14.23,25.8l-6.5,4.66c-4.78-9.63-6.11-20.07-7.73-30.46h0Z"/><path class="cls-47" d="M674.33,300.27c3.23,7.69,6.43,15.55,11.47,22.17,.57,.71,1.14,1.24,1.86,1.7l-5.32,5.97c-.29-.35-.56-.71-.83-1.06-1.51-2.03-2.32-4.44-3.11-6.79-2.14-7.21-3.22-14.61-4.06-21.99h0Z"/><path class="cls-47" d="M651,281.67c4.12,7.83,8.49,15.52,13.17,22.95,2.35,3.7,4.79,7.34,7.38,10.77,2.31,2.97,5.21,6.65,8.21,8.47l-4.61,6.54c-4.08-3.53-6.16-7.42-8.65-11.77-2.17-4-4.07-8.06-5.87-12.14-3.57-8.18-6.74-16.46-9.63-24.82h0Z"/><path class="cls-47" d="M649.25,302.37c4.43,7.6,9.19,15.26,15.41,21.35,1.31,1.19,3.76,3.31,5.2,3.03l-.79,7.96c-1.96-.38-3.33-1.13-4.69-2.22-4.16-3.5-6.59-8.48-8.82-13.15-2.52-5.53-4.56-11.19-6.31-16.97h0Z"/><path class="cls-47" d="M645.89,312.56c-.63,5.5,1.02,11.41,5.29,14.93,2.29,1.99,5.28,3.08,8.17,3.79l-2.94,7.44c-1.69-1.01-3.51-2.15-4.99-3.46-6.79-5.52-8.93-14.76-5.54-22.71h0Z"/><path class="cls-47" d="M625.55,329.48c.51,.05,.9,.48,1.31,.75,2.62,2.03,5.63,3.99,8.78,4.83,3.36,.97,6.78,.67,9.9-.67l1.59,7.84c-2.38,.13-4.8-.06-7.07-.69-5.44-1.42-9.69-5.22-12.71-9.72l-.85-1.25c-.3-.38-.51-.89-.95-1.1h0Z"/><path class="cls-47" d="M638.23,323.92c1.45,5.45,6.71,8.17,12.01,7.45l2.11-.33-.25,8c-7.48-1.37-14.88-6.81-13.88-15.11h0Z"/></g><g><path class="cls-47" d="M772.69,342.97c5.96,2.05,19.07,6.69,20.13,13.64-1.79-5.36-10.2-7.27-15.11-8.6-1.95-.46-3.96-.85-5.88-1.13l.86-3.91h0Z"/><path class="cls-47" d="M769.76,349.31c6.71,2.3,17.34,7.13,16.02,15.68,.08-6.17-6.37-9.09-11.43-10.6-1.78-.51-3.67-.93-5.41-1.16l.83-3.91h0Z"/><path class="cls-47" d="M760.46,354.69c5.65,2.42,20.35,9.23,17.13,17,1.54-6.33-7.74-9.7-12.4-11.46-1.94-.67-3.97-1.27-5.91-1.72l1.18-3.82h0Z"/><path class="cls-47" d="M750.27,360.62c6.22,1.88,22.37,7.36,19.08,16.05,1.26-4.69-3.62-7.55-7.33-9.02-3.96-1.58-8.32-2.54-12.51-3.09l.76-3.93h0Z"/><path class="cls-47" d="M744.51,362.99c9.18,1.57,19.93,7.82,19.33,18.34-.42-4.61-3.15-8.64-7.09-10.89-3.76-2.2-8.28-3.28-12.59-3.46l.35-3.98h0Z"/><path class="cls-47" d="M741.66,364.72c-.06-.08-.13-.15-.21-.21-.06-.04,.01,.02,.01,.02,1.96,1.5,4.06,3.08,5.86,4.78,4.76,4.44,9.19,10.27,9.2,17.05-.02,1.31-.21,2.6-.54,3.85,.16-1.28,.18-2.56,.04-3.82-1.26-8.65-9.08-14.24-16.19-18.24-.44-.26-.94-.51-1.28-.91l3.1-2.53h0Z"/><path class="cls-47" d="M719.57,372.44c.9,8.53,1.81,17.05,1.97,25.62-1.49-8.39-3.7-16.64-5.9-24.86l3.93-.76h0Z"/><path class="cls-47" d="M747.09,395.68c1.58-12.85-7.73-20-18.79-23.69-.97-.4-2.23-.69-2.91-1.58l3.25-2.33c-.07-.13-.24-.28-.34-.33,.12,.1,.3,.19,.5,.3,11.49,5.29,21.45,13.75,18.28,27.63h0Z"/><path class="cls-47" d="M709.31,373.22c-2.59,7.47-4.67,15.43-3.99,23.44-1.57-5.96-1.37-12.27-.76-18.37,.23-2.06,.5-4.08,.91-6.18l3.84,1.11h0Z"/><path class="cls-47" d="M725.47,369.45c3.23,5.39,11.46,19.16,6.84,24.84,2.96-5.05-3.17-13.23-6.02-17.4-1.27-1.73-2.63-3.45-4-5.02l3.19-2.41h0Z"/><path class="cls-47" d="M701.78,373.1c-3.96,4.71-9.04,11.12-7.97,17.67-1.96-5.04,.25-10.64,2.28-15.33,.75-1.62,1.54-3.16,2.51-4.76l3.19,2.42h0Z"/><path class="cls-47" d="M691.57,375.61c-5.55,3.86-12.25,9.43-11.7,16.92-1.62-5.72,1.86-11.45,5.3-15.79,1.23-1.51,2.48-2.92,3.98-4.31l2.42,3.19h0Z"/><path class="cls-47" d="M678.81,373.16c-4.06,3.33-11.06,9.46-9,15.34-2.74-4.62,.63-10.19,3.16-14.18,.96-1.42,1.95-2.74,3.13-4.1l2.71,2.94h0Z"/><path class="cls-47" d="M668.37,371.53c-4.6,1.01-10.89,3.82-10.18,9.52-.46-1.28-.63-2.75-.27-4.2,1.31-4.36,5.3-7.12,9.2-9.13l1.25,3.8h0Z"/></g><path class="cls-31" d="M455.03,750.22c-.86,2.04-2.15,3.48-3.45,4.51-2.29,1.8-4.58,2.27-4.58,2.27-13.7,2.22-21.84-.61-26.48-3.79-1.44-.98-2.54-2-3.36-2.91,.25-.04,.51-.07,.78-.1,11.77-1.51,33.68-.79,33.68-.79,.82,.23,1.67,.45,2.54,.63,.29,.07,.58,.13,.87,.18Z"/><path class="cls-31" d="M500.35,747.74c-.05,3.05-.28,5.45-.6,7.35h-.01c-1.27,7.27-4.07,7.02-4.07,7.02,0,0-16.23,.45-29.11,0-5.75-.2-8.5-3.19-9.77-6.43-.73-1.84-.97-3.77-1.03-5.32,.5,.09,1.01,.17,1.52,.26,.76,.11,1.53,.21,2.3,.29,.12,.01,.24,.02,.36,.04,.2,.03,.41,.04,.62,.06,.42,.04,.85,.08,1.28,.11,.52,.04,1.04,.08,1.57,.1,.36,.02,.72,.04,1.08,.05,.43,.02,.85,.03,1.28,.05h.02c.43,0,.85,.02,1.28,.02,16.1,.19,32.74-3.82,32.74-3.82,.18,.08,.36,.15,.54,.22Z"/><path class="cls-31" d="M548.14,746.12c0,2.84-.21,5.06-.54,6.78-1.14,5.98-3.71,6.1-3.71,6.1,0,0-32,6-38,3.31-2.33-1.05-3.7-4.01-4.49-7.23-.62-2.55-.89-5.25-1-7.32,.37,.15,.74,.29,1.12,.43,.28,.11,.56,.21,.85,.3,.14,.05,.28,.1,.42,.15,.33,.11,.66,.21,.99,.31,1.53,.46,3.08,.84,4.65,1.13,.42,.08,.84,.16,1.27,.22,.42,.07,.84,.14,1.27,.19,1.12,.16,2.24,.27,3.36,.36,.76,.06,1.52,.1,2.28,.13,16.02,.58,31.01-4.96,31.01-4.96,.17,.04,.34,.07,.52,.1Z"/><path class="cls-31" d="M584.59,745.22c-1.1,2.03-2.37,3.76-3.75,5.22h-.01c-9.56,10.08-24.78,7.76-28.5,5.89-1.5-.74-2.46-2.34-3.08-4.13-.73-2.11-1-4.49-1.09-6.07h0c.16,.02,.33,.05,.5,.08,.42,.07,.87,.13,1.34,.18,.28,.04,.56,.07,.86,.1,.3,.03,.6,.06,.91,.08,.31,.03,.62,.05,.94,.07,2.91,.18,6.32,.19,9.95,.09,.7-.02,1.41-.04,2.12-.07,.16,0,.32-.01,.48-.02,.88-.04,1.77-.08,2.66-.13,.08,0,.16,0,.23-.01,.81-.04,1.63-.09,2.44-.14,1.21-.08,2.41-.16,3.61-.25,.82-.06,1.63-.12,2.44-.18,.56-.05,1.11-.09,1.66-.14,.55-.04,1.09-.09,1.63-.14,.32-.03,.65-.06,.97-.09,.52-.04,1.03-.09,1.53-.14,.74-.06,1.46-.13,2.16-.2Z"/><path class="cls-29" d="M454.16,750.04c.29,.07,.58,.13,.87,.18-.86,2.04-2.15,3.48-3.45,4.51-3.54-.73-6.51-1.52-8.25-2.29-4.3-1.9-15.07-.56-22.81,.77-1.44-.98-2.54-2-3.36-2.91,.25-.04,.51-.07,.78-.1,11.77-1.51,33.68-.79,33.68-.79,.82,.23,1.67,.45,2.54,.63Z"/><path class="cls-29" d="M499.81,747.52c.18,.08,.36,.15,.54,.22-.05,3.05-.28,5.45-.6,7.35h-.01c-7.12,.11-14.92,1.01-17.63,2.08-2.99,1.18-15.11,.19-25.32-1.49-.73-1.84-.97-3.77-1.03-5.32,.5,.09,1.01,.17,1.52,.26,.76,.11,1.53,.21,2.3,.29,.12,.01,.24,.02,.36,.04,.2,.03,.41,.04,.62,.06,.42,.04,.85,.08,1.28,.11,.52,.04,1.04,.08,1.57,.1,.36,.02,.72,.04,1.08,.05,.43,.02,.85,.03,1.28,.05h.02c.43,0,.85,.02,1.28,.02,16.1,.19,32.74-3.82,32.74-3.82Z"/><path class="cls-29" d="M547.62,746.02c.17,.04,.34,.07,.52,.1,0,2.84-.21,5.06-.54,6.78-9.13,3.42-30.78,5.5-35.6,3.43-2.04-.88-6.09-1.24-10.6-1.25-.62-2.55-.89-5.25-1-7.32,.37,.15,.74,.29,1.12,.43,.28,.11,.56,.21,.85,.3,.14,.05,.28,.1,.42,.15,.33,.11,.66,.21,.99,.31,1.53,.46,3.08,.84,4.65,1.13,.42,.08,.84,.16,1.27,.22,.42,.07,.84,.14,1.27,.19,1.12,.16,2.24,.27,3.36,.36,.76,.06,1.52,.1,2.28,.13,16.02,.58,31.01-4.96,31.01-4.96Z"/><path class="cls-29" d="M584.59,745.22c-1.1,2.03-2.37,3.76-3.75,5.22h-.01c-7.85-.79-25.66-2.16-30.39,1.08-.34,.23-.74,.46-1.19,.68-.73-2.11-1-4.49-1.09-6.07h0c.16,.02,.33,.05,.5,.08,.42,.07,.87,.13,1.34,.18,.28,.04,.56,.07,.86,.1,.3,.03,.6,.06,.91,.08,.3,.03,.62,.05,.94,.07,2.91,.18,6.32,.19,9.95,.09,.7-.02,1.41-.04,2.12-.07,.16,0,.32-.01,.48-.02,.88-.04,1.77-.08,2.66-.13,.08,0,.16,0,.23-.01,.81-.04,1.63-.09,2.44-.14,1.21-.08,2.41-.16,3.61-.25,.82-.06,1.63-.12,2.44-.18,.56-.05,1.11-.09,1.66-.14,.55-.04,1.09-.09,1.63-.14,.32-.03,.65-.06,.97-.09,.52-.04,1.03-.09,1.53-.14,.74-.06,1.46-.13,2.16-.2Z"/></g></g></svg>